<svg width="24" height="25" viewBox="0 0 24 25" fill="none" xmlns="http://www.w3.org/2000/svg">
<path d="M16.3748 3.26408C17.5342 3.26755 18.645 3.73165 19.4648 4.55501C20.2846 5.37837 20.7467 6.49409 20.7502 7.65849V16.4464C20.7467 17.6108 20.2846 18.7265 19.4648 19.5499C18.645 20.3732 17.5342 20.8373 16.3748 20.8408H7.62516C6.46582 20.8373 5.35495 20.3732 4.53517 19.5499C3.71539 18.7265 3.25331 17.6108 3.24984 16.4464V7.65849C3.25331 6.49409 3.71539 5.37837 4.53517 4.55501C5.35495 3.73165 6.46582 3.26755 7.62516 3.26408H16.3748V3.26408ZM16.3748 1.50659H7.62516C4.25625 1.50659 1.5 4.27488 1.5 7.65849V16.4464C1.5 19.83 4.25625 22.5983 7.62516 22.5983H16.3748C19.7437 22.5983 22.5 19.83 22.5 16.4464V7.65849C22.5 4.27488 19.7437 1.50659 16.3748 1.50659V1.50659Z" fill="white"/>
<path d="M17.6873 7.65844C17.4277 7.65844 17.174 7.58112 16.9582 7.43627C16.7423 7.29142 16.5741 7.08554 16.4747 6.84467C16.3754 6.60379 16.3494 6.33874 16.4001 6.08303C16.4507 5.82732 16.5757 5.59243 16.7593 5.40807C16.9428 5.22372 17.1767 5.09817 17.4313 5.0473C17.6859 4.99644 17.9498 5.02254 18.1896 5.12232C18.4294 5.22209 18.6344 5.39105 18.7786 5.60783C18.9229 5.82462 18.9998 6.07948 18.9998 6.3402C19.0002 6.51342 18.9665 6.68501 18.9007 6.84511C18.8349 7.00521 18.7382 7.15068 18.6162 7.27317C18.4943 7.39565 18.3495 7.49273 18.19 7.55885C18.0306 7.62497 17.8598 7.65881 17.6873 7.65844V7.65844ZM12 8.53694C12.6923 8.53694 13.369 8.74312 13.9446 9.1294C14.5202 9.51568 14.9688 10.0647 15.2337 10.7071C15.4986 11.3494 15.568 12.0563 15.4329 12.7382C15.2978 13.4201 14.9645 14.0465 14.475 14.5382C13.9855 15.0298 13.3618 15.3646 12.6828 15.5003C12.0039 15.6359 11.3001 15.5663 10.6605 15.3002C10.021 15.0342 9.47433 14.5836 9.08973 14.0055C8.70513 13.4273 8.49984 12.7477 8.49984 12.0524C8.50084 11.1203 8.86992 10.2267 9.52611 9.56769C10.1823 8.90864 11.072 8.53794 12 8.53694V8.53694ZM12 6.77946C10.9616 6.77946 9.94661 7.08871 9.08326 7.66811C8.2199 8.2475 7.54699 9.07102 7.14963 10.0345C6.75227 10.998 6.64831 12.0582 6.85088 13.0811C7.05345 14.1039 7.55347 15.0435 8.28769 15.7809C9.02192 16.5183 9.95738 17.0205 10.9758 17.224C11.9942 17.4274 13.0498 17.323 14.0091 16.9239C14.9684 16.5248 15.7883 15.849 16.3652 14.9819C16.9421 14.1147 17.25 13.0953 17.25 12.0524C17.25 10.6539 16.6969 9.31273 15.7123 8.32386C14.7277 7.335 13.3924 6.77946 12 6.77946V6.77946Z" fill="white"/>
</svg>
