<svg width="76" height="56" viewBox="0 0 76 56" fill="none" xmlns="http://www.w3.org/2000/svg">
<path d="M61.7572 23.1958C60.5889 24.5308 59.5318 25.7545 55.4704 25.8102C51.4646 25.8658 27.3187 26.5333 21.1987 26.7558C16.8591 26.9226 14.6893 26.7558 13.2428 25.4208C11.8519 24.0858 8.90321 22.0833 5.11998 23.8633C1.44802 25.532 -0.054149 27.2008 0.00148678 29.4814V30.1489L5.78762 28.2577C6.0658 28.2577 7.56796 28.4802 8.17995 30.8164C8.79194 33.2083 7.95741 34.7658 7.67923 35.1552L1.67056 37.2133L2.00438 37.714C2.06002 37.8252 3.45091 39.7721 8.62504 39.6609C11.2956 39.6052 12.5195 38.2146 13.7435 36.9352C15.0232 35.5446 16.1915 34.2652 19.0846 34.2096C23.7023 34.0983 31.9364 33.9314 39.8367 33.7646C46.6243 33.5977 53.0224 33.4864 56.138 33.4308C56.4162 33.4308 56.6944 33.4308 56.9169 33.4308C59.5318 33.3752 61.5903 33.3196 64.3721 35.1552C66.0412 36.2677 68.5448 36.4902 70.659 35.6558C73.1626 34.7102 74.9429 32.6521 75.7775 29.7595L76 28.8695L70.3808 30.8164C69.9913 30.8164 68.1553 30.5939 67.3764 28.7583C66.6532 27.0339 67.2095 25.3651 67.3764 24.8645L72.7175 22.6395L72.4393 22.1389C72.3837 22.0276 70.7702 19.4689 65.6517 20.637C63.5376 21.082 62.6474 22.1945 61.7572 23.1958ZM15.4126 34.3208C15.7464 34.1539 16.1915 33.9314 16.8591 33.7646C17.5268 33.5977 18.3057 33.4308 19.1959 33.3752C20.1417 33.3196 21.1431 33.2639 22.3114 33.2083C23.4242 33.1527 24.6481 33.1527 25.9834 33.0971C27.263 33.0414 28.6539 33.0414 30.0448 32.9858C31.4357 32.9302 32.9379 32.9302 34.4401 32.8746C35.9422 32.8189 37.4444 32.8189 38.9466 32.7633C40.4487 32.7633 41.9509 32.7077 43.453 32.7077C44.9552 32.7077 46.4018 32.6521 47.8483 32.6521C50.6857 32.5964 53.3006 32.5964 55.5817 32.5964C56.6944 32.5964 57.7515 32.5964 58.6973 32.5964C59.1424 32.5964 59.5874 32.5964 59.9769 32.5964C60.3663 32.5964 60.7558 32.7077 61.0896 32.7633C61.7572 32.9302 62.2023 33.1527 62.5361 33.3196C62.87 33.4864 63.0369 33.5977 63.0369 33.5977C63.0369 33.5977 62.87 33.4864 62.5361 33.3752C62.2023 33.2083 61.7016 33.0414 61.0896 32.9302C60.7558 32.8746 60.422 32.8189 60.0325 32.8189C59.6431 32.8189 59.198 32.8189 58.7529 32.8746C57.8071 32.9302 56.8057 32.9858 55.6373 32.9858C53.3562 33.0971 50.7413 33.1527 47.9039 33.2083C46.513 33.2639 45.0109 33.2639 43.5643 33.3196C42.0622 33.3752 40.56 33.3752 39.0578 33.4308C37.5557 33.4308 36.0535 33.4864 34.5513 33.4864C33.0492 33.4864 31.6026 33.5421 30.1561 33.5421C28.7652 33.5421 27.3743 33.5977 26.0947 33.5977C24.8151 33.5977 23.5911 33.5977 22.4227 33.5977C21.31 33.5977 20.2529 33.5977 19.3071 33.6533C18.4169 33.7089 17.5824 33.8202 16.9704 33.9314C16.2472 33.9871 15.7464 34.2096 15.4126 34.3208C15.1344 34.4877 14.9675 34.6546 14.9675 34.6546C14.9675 34.6546 15.0788 34.4877 15.4126 34.3208ZM71.271 22.2501L66.7088 24.1414L66.6532 24.3083C66.5976 24.4195 65.5405 26.7002 66.5419 29.1477C67.599 31.7064 70.3808 31.7621 70.4921 31.7621H70.5477L74.4978 30.3714C73.6633 32.4852 72.2168 33.9871 70.2695 34.7102C69.9913 34.8215 69.6575 34.9327 69.3237 34.9883C69.2124 34.9883 69.1012 35.0439 68.9899 35.0439C68.7674 35.0996 68.4335 35.0996 68.0997 35.0996C67.7659 35.0996 67.3765 35.044 66.987 34.9327C66.5976 34.8215 66.2081 34.7102 65.763 34.4321C65.3736 34.2096 64.9841 33.9314 64.6503 33.5421C64.4834 33.3752 64.3165 33.1527 64.1496 32.9858C64.0939 32.8746 63.9827 32.7633 63.927 32.6521C63.8714 32.5408 63.8158 32.4296 63.7045 32.3183C63.4263 31.8733 63.2038 31.3727 63.0369 30.872C62.87 30.3714 62.6474 29.8152 62.5361 29.3145C62.3692 28.8139 62.3136 28.2577 62.258 27.8126C62.2023 27.312 62.258 26.867 62.3692 26.422C62.4805 25.977 62.5918 25.5876 62.8143 25.1983C62.9812 24.8089 63.2038 24.4751 63.3707 24.197C63.4819 24.0301 63.5376 23.9189 63.6489 23.8076C63.7601 23.6964 63.8158 23.5851 63.8714 23.4739C64.2052 23.0845 64.3721 22.862 64.3721 22.862C64.3721 22.862 64.3165 22.9176 64.2052 22.9733C64.0939 23.0289 63.927 23.1401 63.7045 23.307C63.482 23.4739 63.2594 23.6407 62.9812 23.9189C62.703 24.197 62.4249 24.4751 62.1467 24.8645C61.8685 25.2539 61.646 25.6989 61.4791 26.1995C61.3122 26.7001 61.2009 27.312 61.2009 27.8683C61.2009 28.3133 61.2565 28.7583 61.3121 29.2589C30.8794 33.0414 17.8606 31.1502 14.4668 30.427C14.4668 30.3714 14.4668 30.3714 14.4668 30.3158C14.4668 30.1489 14.4112 29.982 14.3555 29.8708C14.2999 29.537 14.133 29.2589 14.0217 28.9808C13.7435 28.4245 13.3541 27.9795 12.9646 27.5902C12.5752 27.2008 12.1301 26.867 11.685 26.6445C11.2399 26.3664 10.8505 26.1439 10.461 25.977C10.0716 25.8101 9.68212 25.6433 9.40394 25.532C9.07013 25.4208 8.79195 25.3651 8.56941 25.2539C8.06868 25.1426 7.7905 25.087 7.7905 25.087C7.7905 25.087 8.01304 25.1983 8.45813 25.4764C8.68067 25.5876 8.90322 25.7545 9.1814 25.9214C9.45957 26.0883 9.79339 26.3108 10.1272 26.5333C10.461 26.7558 10.7948 27.0339 11.1843 27.312C11.5181 27.5902 11.9076 27.9239 12.1857 28.2577C12.5195 28.5914 12.7977 29.0364 12.9646 29.4258C13.0759 29.6483 13.1315 29.8708 13.1872 30.0933C13.2428 30.2045 13.2428 30.3158 13.2428 30.427L13.2985 30.8164C13.3541 31.3171 13.4097 31.8733 13.4097 32.3739C13.4097 32.8746 13.3541 33.3752 13.2985 33.8202C13.1872 34.2652 13.0759 34.7102 12.8534 35.1552C12.6865 35.5446 12.4639 35.934 12.2414 36.2677C12.0188 36.6015 11.7963 36.9352 11.5737 37.1577C11.3512 37.4358 11.1843 37.6583 11.0174 37.8252C10.9061 37.9921 10.7948 38.1033 10.7392 38.159C10.1272 38.4927 9.40394 38.7152 8.45813 38.7152C5.50943 38.7708 3.95163 38.1033 3.22837 37.6583L8.12432 35.934L8.23559 35.8227C8.29122 35.7115 9.84902 33.7089 9.01449 30.4827C8.34686 27.757 6.45524 27.1452 5.56507 27.2008H5.50944L1.00293 28.7583C1.22548 27.5902 2.11565 26.2552 5.50944 24.6976C8.62504 23.2514 11.073 24.6976 12.5752 26.0883C14.4112 27.8127 17.193 27.8683 21.2544 27.7014C27.3743 27.4789 51.4646 26.8114 55.4704 26.7558C59.9769 26.7001 61.3121 25.1426 62.4805 23.8076C63.315 22.862 64.0939 21.972 65.9299 21.527C69.0455 20.9151 70.6033 21.6939 71.271 22.2501Z" fill="#404040"/>
<path d="M63.8714 35.489C63.8158 35.934 63.7045 36.379 63.5376 36.7684C63.315 37.4915 62.9256 38.1034 62.4249 38.604C62.0354 39.049 61.5903 39.3828 61.034 39.7165C56.75 47.6153 48.349 52.9553 38.724 52.9553C27.875 52.9553 18.5838 46.0578 14.9675 36.4346C14.6893 36.7127 14.4111 37.0465 14.0773 37.3246C13.7992 37.6027 13.521 37.8809 13.2428 38.2146C17.4155 48.1716 27.263 55.1803 38.724 55.1803C50.9639 55.1803 61.3678 47.1703 64.9841 36.1565C64.6503 35.9896 64.3165 35.8227 63.9827 35.6559C63.9827 35.5446 63.927 35.5446 63.8714 35.489Z" fill="#120F10"/>
<path d="M13.0759 23.9189C13.0759 23.1401 13.2428 22.3614 13.521 21.6383C13.7435 21.0264 14.133 20.4701 14.5224 20.0251C17.7493 9.73443 27.3743 2.22501 38.7796 2.22501C50.5188 2.22501 60.3663 10.2351 63.315 21.0264C63.8714 20.6926 64.539 20.3589 65.3736 20.192C62.1467 8.56631 51.4646 0 38.7796 0C24.9263 0 13.4654 10.2351 11.4625 23.5295C12.0745 23.8633 12.6308 24.2527 13.1315 24.642C13.0759 24.3639 13.0759 24.1414 13.0759 23.9189Z" fill="#120F10"/>
<path d="M38.7796 3.39315C50.1293 3.39315 59.6431 11.2363 62.2579 21.8051C62.3692 21.6939 62.4805 21.5826 62.5918 21.4714C59.8656 10.8469 50.2406 2.94816 38.7796 2.94816C28.2088 2.94816 19.1958 9.62319 15.7464 18.9682C15.9133 18.857 16.1358 18.7457 16.3028 18.6345C19.8634 9.73444 28.5983 3.39315 38.7796 3.39315Z" fill="#120F10"/>
<path d="M38.7796 51.7316C28.2644 51.7316 19.3071 45.0009 16.0246 35.6558C15.9133 35.7115 15.802 35.8227 15.6907 35.934C19.1402 45.3903 28.2088 52.1766 38.8352 52.1766C47.7926 52.1766 55.6373 47.3928 59.9212 40.2171C59.7543 40.2727 59.5318 40.3284 59.3649 40.3284C55.0809 47.1703 47.4588 51.7316 38.7796 51.7316Z" fill="#120F10"/>
<path d="M19.474 26.3108C18.9732 26.3664 18.5838 26.3108 18.25 26.1439C17.9718 26.0326 17.7492 25.8658 17.5823 25.6433C17.3598 25.4208 17.2485 25.1426 17.1373 24.8645C17.026 24.5308 16.9704 24.197 16.9704 23.8076C16.9704 23.4182 17.026 23.0845 17.1373 22.7507C17.2485 22.417 17.4154 22.1945 17.5823 21.972C17.7492 21.7495 17.9718 21.5826 18.25 21.4714C18.6951 21.3045 19.1958 21.2489 19.8634 21.3601C20.1416 21.4157 20.4198 21.527 20.8092 21.6382L21.5881 21.972L22.5896 19.4688L21.8663 19.1351C21.3656 18.9126 20.8649 18.7457 20.4198 18.6901C19.9747 18.6345 19.5296 18.5788 19.1402 18.5788C18.3612 18.5788 17.638 18.6901 16.9704 18.9682C16.3027 19.2463 15.7464 19.5801 15.2456 20.0807C14.7449 20.5257 14.4111 21.1376 14.1329 21.7495C13.8547 22.3614 13.7435 23.0845 13.7435 23.8076C13.7435 24.5864 13.8547 25.2539 14.1329 25.8658C14.4111 26.5333 14.7449 27.0895 15.2456 27.5345C15.6907 27.9795 16.3027 28.3689 16.9704 28.647C17.638 28.9251 18.3612 29.0364 19.1402 29.0364C19.3627 29.0364 19.6965 29.0364 20.0303 28.9808C20.3085 28.9252 20.6423 28.8695 21.0318 28.7583C21.1987 28.7027 21.4212 28.647 21.5881 28.5914L21.8663 27.8683L21.9776 27.4789L22.5339 25.9214V23.2514H19.5296V26.3108H19.474ZM20.3085 26.9783V24.1414H21.6438V27.6458C21.3656 27.757 21.0874 27.8683 20.7536 27.9795C20.4754 28.0908 20.1416 28.1464 19.8634 28.1464C19.5852 28.1464 19.3071 28.202 19.0845 28.202C18.4169 28.202 17.8049 28.0908 17.2485 27.8683C16.6922 27.6458 16.1915 27.3676 15.802 26.9783C15.4126 26.5889 15.0787 26.1439 14.8562 25.5876C14.6336 25.0314 14.5224 24.4751 14.5224 23.8076C14.5224 23.1957 14.6336 22.5839 14.8562 22.0832C15.0787 21.527 15.4126 21.082 15.802 20.6926C16.1915 20.3032 16.6922 19.9695 17.2485 19.747C17.8049 19.5245 18.4169 19.4132 19.0845 19.4132C19.4183 19.4132 19.8078 19.4688 20.1972 19.5245C20.6423 19.5801 21.0318 19.747 21.4768 19.9139L21.0874 20.9151C20.6423 20.7482 20.2529 20.637 19.9747 20.5813C19.6409 20.5257 19.3627 20.5257 19.0845 20.5257C18.6394 20.5257 18.25 20.5814 17.8605 20.7482C17.4711 20.9151 17.1929 21.1376 16.9147 21.4157C16.6365 21.6939 16.414 22.0832 16.3027 22.4726C16.1358 22.862 16.0802 23.307 16.0802 23.8076C16.0802 24.3083 16.1358 24.7533 16.3027 25.1426C16.4696 25.532 16.6365 25.9214 16.9147 26.1995C17.1929 26.4776 17.4711 26.7558 17.8605 26.9226C18.25 27.0895 18.6394 27.2008 19.0845 27.2008C19.2514 27.2008 19.4183 27.2008 19.6409 27.1451C19.8078 27.0895 20.0303 27.0339 20.3085 26.9783Z" fill="white"/>
<path d="M22.4227 25.977V28.202L22.2001 28.3133L21.9776 28.4245C21.8107 28.4802 21.6438 28.5914 21.4769 28.647L21.755 27.9239L21.8663 27.5345L22.4227 25.977Z" fill="white"/>
<path d="M30.6568 27.0895L27.6524 18.7457H25.0376L22.4227 25.977V28.202L22.2001 28.3133L21.9776 28.4245C21.8107 28.4801 21.6438 28.5914 21.4769 28.647L21.3656 28.9808H24.5925L25.2601 27.0339H27.3186L27.9863 28.9808H31.2688L30.6568 27.0895ZM28.5983 28.0908L27.875 25.8657L27.8194 25.6989L26.4285 21.527L26.3172 21.1376L26.2059 21.5826L25.0932 24.8645L24.9819 25.087H25.1488H26.3172C26.5397 25.087 26.7066 25.1426 26.8179 25.2539C26.9848 25.3651 27.0961 25.532 27.1517 25.6432C27.263 25.8101 27.3186 25.977 27.3743 26.1439H24.7037L24.0361 28.0908H22.5896L25.6495 19.5801H27.0404L30.1004 28.0908H28.5983ZM26.4285 24.2526C26.3728 24.2526 26.3172 24.2526 26.2615 24.2526H26.1503L26.2615 23.8632L26.4285 24.2526Z" fill="white"/>
<path d="M38.6684 28.3689L38.4458 27.8683L38.3902 27.7014C38.2789 27.4789 38.2233 27.312 38.1677 27.0895C38.112 26.9783 38.0564 26.8114 38.0564 26.7001C38.0008 26.4776 37.9451 26.2551 37.8895 26.0883L37.7782 25.6432C37.6669 25.2539 37.5557 24.9201 37.3888 24.5864C37.3331 24.4751 37.2775 24.3639 37.1662 24.2526C37.3331 24.0857 37.5557 23.8632 37.6669 23.6407C38.0007 23.1401 38.1677 22.5838 38.1677 21.972C38.1677 21.2488 37.9451 20.637 37.5557 20.1363C37.1662 19.6357 36.6655 19.2463 36.0535 18.9682C35.4415 18.6901 34.7739 18.5788 34.0506 18.5788C33.7724 18.5788 33.4386 18.5788 33.1604 18.5788C32.8823 18.5788 32.6041 18.6344 32.3259 18.6901C32.0477 18.7457 31.7139 18.8013 31.3245 18.857L30.6012 18.9682V27.0895L31.2688 28.9251H33.7724V25.3651C33.8281 25.3651 33.8837 25.3651 33.9393 25.3651C34.0506 25.3651 34.1619 25.3651 34.2731 25.3651C34.3288 25.4207 34.3844 25.4764 34.3844 25.532C34.4957 25.7545 34.607 26.0326 34.6626 26.2551L34.7182 26.5333C34.7739 26.7558 34.8295 27.0339 34.9408 27.2564C35.0521 27.6457 35.1633 28.0351 35.3302 28.4245L35.5528 28.9251H38.8909L38.6684 28.3689ZM36.1091 28.0908C35.9422 27.757 35.831 27.4789 35.7753 27.0895C35.664 26.7558 35.6084 26.3664 35.4971 26.0326C35.3859 25.6989 35.2746 25.3651 35.1633 25.1426C34.9964 24.8645 34.8295 24.642 34.5513 24.5307C34.3844 24.5307 34.1619 24.5307 33.995 24.5307C33.8281 24.5307 33.6055 24.4751 33.383 24.4195C33.4386 24.2526 33.4943 24.1414 33.6055 23.9745C33.7168 23.8076 33.8281 23.6964 33.9393 23.6407C34.0506 23.5295 34.2175 23.4739 34.3844 23.4739C34.607 23.4739 34.8295 23.4182 35.0521 23.2514C35.2746 23.1401 35.4415 22.9732 35.5528 22.7507C35.6641 22.5282 35.7197 22.3057 35.7197 21.972C35.7197 21.6938 35.664 21.4157 35.4971 21.1932C35.3302 20.9707 35.1077 20.8038 34.8851 20.637C34.607 20.5257 34.3288 20.4145 33.995 20.4145C33.7724 20.4145 33.6055 20.4145 33.4386 20.4145C33.2717 20.4145 33.1048 20.4701 32.8823 20.4701V27.9795H31.4357V19.5801C31.8252 19.5245 32.159 19.4688 32.4372 19.4132C32.7154 19.3576 32.9935 19.3576 33.2161 19.302C33.4386 19.302 33.7168 19.302 33.995 19.302C34.607 19.302 35.1633 19.4132 35.664 19.6357C36.1648 19.8582 36.5542 20.1363 36.8324 20.5257C37.1106 20.9151 37.2775 21.3601 37.2775 21.8607C37.2775 22.3057 37.1662 22.7507 36.9437 23.0845C36.7211 23.4182 36.3873 23.6964 36.0535 23.9189L35.7753 24.0301L35.9979 24.1414C36.276 24.3639 36.443 24.5864 36.6099 24.8645C36.7768 25.1426 36.888 25.4207 36.9437 25.7545C37.0549 26.0883 37.1106 26.422 37.2219 26.8114C37.3331 27.2008 37.4444 27.5345 37.6669 27.9239H36.1091V28.0908ZM33.7724 22.7507V21.3045C33.995 21.3045 34.3288 21.3045 34.5513 21.4157C34.6626 21.4713 34.7739 21.5826 34.8295 21.6938C34.8851 21.8051 34.9408 21.8607 34.9408 21.972C34.9408 22.1388 34.8851 22.2501 34.8851 22.3057C34.8295 22.417 34.7182 22.4726 34.6626 22.5838C34.5513 22.6395 34.4401 22.6951 34.3844 22.6951C34.1062 22.6395 33.9393 22.6951 33.7724 22.7507Z" fill="white"/>
<path d="M46.1792 27.9795V28.0337H46.2334L46.1792 27.9795Z" fill="white"/>
<path d="M46.1792 27.9795V28.0337H46.2334L46.1792 27.9795Z" fill="white"/>
<path d="M46.1792 27.9795V28.0337H46.2334L46.1792 27.9795Z" fill="white"/>
<path d="M47.2918 28.5358L47.0137 27.8126L46.9024 27.5901L46.6242 26.8114L43.7311 18.7457H41.1163L38.1119 27.0895C38.1676 27.312 38.2788 27.4789 38.3345 27.7014L38.3901 27.8683L38.6127 28.3689L38.8908 28.9251H40.6712L41.3388 26.9783H43.3973L44.065 28.9251H47.3475L47.2918 28.5358ZM44.677 28.0908L43.9537 25.8657L43.8981 25.7545L42.5072 21.5826L42.3959 21.1932L42.2846 21.6382L41.1719 24.9201L41.0606 25.1426H41.2275H42.3959C42.6184 25.1426 42.7853 25.1982 42.9522 25.3095C43.1192 25.4207 43.2304 25.5876 43.2861 25.6989C43.3973 25.8658 43.453 26.0326 43.5086 26.1995H40.8381L40.1705 28.1464H38.7239L41.7839 19.6357H43.2304L46.2348 28.0351L46.2904 28.1464H44.677V28.0908ZM42.5072 24.2526C42.4515 24.2526 42.3959 24.2526 42.3402 24.2526H42.229L42.3402 23.8632L42.5072 24.2526Z" fill="white"/>
<path d="M53.3562 18.7457V25.0314C53.4118 25.3095 53.4675 25.6433 53.4675 25.9214C53.4675 26.1995 53.4118 26.5333 53.3562 26.8114V28.9251H56.4162V18.7457H53.3562ZM55.6373 28.0908H54.2464V19.5801H55.6373V28.0908Z" fill="white"/>
<path d="M53.3562 24.9758C53.3006 24.7533 53.1893 24.5308 53.0781 24.3083C52.8555 23.9189 52.5217 23.5295 52.1322 23.2514C51.7984 22.9733 51.409 22.7508 51.0752 22.5839L50.9083 22.4726C50.6301 22.3058 50.4075 22.1945 50.1293 22.0276C49.9068 21.9164 49.7399 21.7495 49.573 21.6383C49.5174 21.5826 49.5174 21.5826 49.5174 21.4714C49.5174 21.4157 49.5174 21.4158 49.573 21.3601C49.573 21.3601 49.6843 21.3045 49.9624 21.3045C50.1294 21.3045 50.2963 21.3045 50.5744 21.3601C50.8526 21.4158 51.0752 21.4714 51.409 21.527L52.1322 21.7495L53.1337 19.302L52.2992 19.0239C51.7984 18.857 51.3533 18.7457 50.9639 18.6901C49.8512 18.5232 48.9054 18.6345 48.1821 18.9126C47.6814 19.1351 47.2363 19.5245 46.9581 19.9695C46.6243 20.4145 46.4574 20.9708 46.4574 21.6383C46.4574 22.2501 46.6243 22.7508 46.9025 23.1958C47.125 23.5851 47.4588 23.9189 47.8483 24.197C48.1821 24.4195 48.5159 24.642 48.9054 24.8645C49.2392 25.0314 49.5174 25.1983 49.7955 25.3651C50.0181 25.4764 50.185 25.6433 50.3519 25.7545C50.4075 25.8102 50.4075 25.8658 50.4075 25.977C50.4075 26.0326 50.4075 26.0883 50.2963 26.1995C50.0737 26.3664 49.573 26.422 48.9054 26.2552C48.5716 26.1995 48.2377 26.0883 47.9596 25.9214L47.1807 25.5876L46.6799 26.867L46.9581 27.6458L47.0694 27.8683L47.3476 28.5914C47.737 28.7583 48.1265 28.8695 48.5159 28.9252C49.0166 29.0364 49.4617 29.092 49.8512 29.092C50.5744 29.092 51.1864 28.9808 51.7428 28.7027C52.2992 28.4245 52.7442 28.0908 53.0781 27.5902C53.245 27.312 53.3562 27.0339 53.4675 26.7558C53.5231 26.4776 53.5788 26.1995 53.5788 25.8658C53.5231 25.5876 53.4675 25.3095 53.3562 24.9758ZM52.2992 27.0895C52.0766 27.4233 51.7428 27.7014 51.2977 27.9239C50.8526 28.1464 50.3519 28.202 49.7399 28.202C49.4061 28.202 49.0166 28.1464 48.5716 28.0908C48.1265 27.9795 47.6814 27.8683 47.1807 27.6458L47.5701 26.7001C47.9596 26.867 48.349 26.9783 48.6828 27.0895C49.0166 27.1452 49.3505 27.2008 49.6843 27.2008C50.1294 27.2008 50.5188 27.0895 50.797 26.867C51.0752 26.6445 51.2421 26.3108 51.2421 25.977C51.2421 25.6989 51.1308 25.4208 50.9639 25.1983C50.797 24.9758 50.5188 24.8089 50.2406 24.642C49.9624 24.4751 49.6286 24.3083 49.2948 24.1414C48.961 23.9745 48.6272 23.752 48.349 23.5851C48.0708 23.3626 47.7926 23.1401 47.6257 22.8064C47.4588 22.5282 47.3476 22.1389 47.3476 21.6939C47.3476 21.2489 47.4588 20.8595 47.6814 20.5257C47.9039 20.192 48.1821 19.9695 48.5716 19.8026C48.961 19.6357 49.3504 19.5245 49.8512 19.5245C50.185 19.5245 50.5744 19.5245 50.9083 19.5801C51.2421 19.6357 51.6315 19.747 52.0766 19.8582L51.6872 20.8039C51.3533 20.6926 51.0195 20.637 50.7413 20.5814C50.4632 20.5257 50.185 20.5257 49.9624 20.5257C49.573 20.5257 49.2948 20.637 49.0723 20.8039C48.8497 21.0264 48.7385 21.2489 48.7385 21.527C48.7385 21.8051 48.8497 22.0276 49.0166 22.2501C49.1835 22.4726 49.4617 22.6395 49.7399 22.8064C50.0181 22.9732 50.3519 23.1401 50.6857 23.307C51.0195 23.4739 51.3533 23.6964 51.6315 23.9189C51.9097 24.1414 52.1879 24.4195 52.3548 24.7533C52.5217 25.087 52.633 25.4764 52.633 25.9214C52.6886 26.3664 52.5217 26.7558 52.2992 27.0895Z" fill="white"/>
<path d="M21.5882 24.141V27.6454C21.31 27.7566 21.0318 27.8679 20.698 27.9791C20.4198 28.0904 20.086 28.146 19.8078 28.146C19.5297 28.146 19.2515 28.2016 19.0289 28.2016C18.3613 28.2016 17.7493 28.0904 17.193 27.8679C16.6366 27.6454 16.1359 27.3672 15.7464 26.9779C15.357 26.5885 15.0232 26.1435 14.8006 25.5872C14.5781 25.031 14.4668 24.4747 14.4668 23.8072C14.4668 23.1953 14.5781 22.5835 14.8006 22.0828C15.0232 21.5266 15.357 21.0816 15.7464 20.6922C16.1359 20.3028 16.6366 19.9691 17.193 19.7466C17.7493 19.5241 18.3613 19.4128 19.0289 19.4128C19.3627 19.4128 19.7522 19.4684 20.1416 19.5241C20.5867 19.5797 20.9762 19.7466 21.4213 19.9134L21.0318 20.9147C20.5867 20.7478 20.1973 20.6366 19.9191 20.5809C19.5853 20.5253 19.3071 20.5253 19.0289 20.5253C18.5838 20.5253 18.1944 20.5809 17.805 20.7478C17.4155 20.9147 17.1373 21.1372 16.8591 21.4153C16.581 21.6934 16.3584 22.0828 16.2471 22.4722C16.0802 22.8616 16.0246 23.3066 16.0246 23.8072C16.0246 24.3078 16.0802 24.7528 16.2471 25.1422C16.414 25.5316 16.581 25.921 16.8591 26.1991C17.1373 26.4772 17.4155 26.7554 17.805 26.9222C18.1944 27.0891 18.5838 27.2004 19.0289 27.2004C19.1958 27.2004 19.3627 27.2004 19.5853 27.1447C19.7522 27.1447 19.9747 27.0891 20.2529 27.0335V24.1966H21.5882V24.141Z" fill="#121011" stroke="black" stroke-miterlimit="10"/>
<path d="M30.1004 28.0908H28.5982L27.8749 25.8658L27.8193 25.6989L26.4284 21.527L26.3171 21.1376L26.2059 21.5826L25.0932 24.8645L24.9819 25.087H25.1488H26.3171C26.5397 25.087 26.7066 25.1427 26.8179 25.2539C26.9848 25.3652 27.096 25.532 27.1517 25.6433C27.263 25.8102 27.3186 25.977 27.3742 26.1439H24.7037L24.0361 28.0908H22.5895L25.6495 19.5801H27.0404L30.1004 28.0908Z" fill="#121011" stroke="black" stroke-miterlimit="10"/>
<path d="M37.6113 28.0908H36.1091C35.9422 27.757 35.831 27.4789 35.7753 27.0895C35.664 26.7558 35.6084 26.3664 35.4971 26.0327C35.3859 25.6989 35.2746 25.3652 35.1633 25.1427C34.9964 24.8645 34.8295 24.642 34.5513 24.5308C34.3844 24.5308 34.1619 24.5308 33.995 24.5308C33.8281 24.5308 33.6055 24.4752 33.383 24.4195C33.4386 24.2527 33.4943 24.1414 33.6055 23.9745C33.7168 23.8076 33.8281 23.6964 33.9393 23.6408C34.0506 23.5295 34.2175 23.4739 34.3844 23.4739C34.607 23.4739 34.8295 23.4183 35.0521 23.2514C35.2746 23.1401 35.4415 22.9733 35.5528 22.7508C35.664 22.5283 35.7197 22.3058 35.7197 21.972C35.7197 21.6939 35.664 21.4158 35.4971 21.1933C35.3302 20.9708 35.1077 20.8039 34.8851 20.637C34.607 20.5257 34.3288 20.4145 33.995 20.4145C33.7724 20.4145 33.6055 20.4145 33.4386 20.4145C33.2717 20.4145 33.1048 20.4701 32.8822 20.4701V27.9795H31.4357V19.5801C31.8252 19.5245 32.159 19.4689 32.4372 19.4133C32.7153 19.3576 32.9935 19.3576 33.2161 19.302C33.4386 19.302 33.7168 19.302 33.995 19.302C34.607 19.302 35.1633 19.4132 35.664 19.6357C36.1648 19.8583 36.5542 20.1364 36.8324 20.5258C37.1106 20.9151 37.2775 21.3601 37.2775 21.8608C37.2775 22.3058 37.1662 22.7508 36.9437 23.0845C36.7211 23.4183 36.3873 23.6964 36.0535 23.9189L35.7753 24.0301L35.9979 24.1414C36.276 24.3639 36.4429 24.5864 36.6099 24.8645C36.7768 25.1427 36.888 25.4208 36.9437 25.7545C37.0549 26.0883 37.1106 26.422 37.2219 26.8114C37.3331 27.312 37.4444 27.7014 37.6113 28.0908Z" fill="#121011" stroke="black" stroke-miterlimit="10"/>
<path d="M46.1792 27.9795V28.0337H46.2334L46.1792 27.9795Z" fill="#121011" stroke="black" stroke-miterlimit="10"/>
<path d="M46.1792 28.0908H44.677L43.9537 25.8658L43.8981 25.7545L42.5072 21.5826L42.3959 21.1933L42.2846 21.6383L41.1719 24.9202L41.0606 25.1427H41.2275H42.3959C42.6184 25.1427 42.7854 25.1983 42.9523 25.3095C43.1192 25.4208 43.2304 25.5877 43.2861 25.6989C43.3974 25.8658 43.453 26.0327 43.5086 26.1995H40.8381L40.1705 28.1464H38.7239L41.7839 19.6358H43.2304L46.2348 28.0352V28.0908H46.1792Z" fill="#121011" stroke="black" stroke-miterlimit="10"/>
<path d="M52.6885 25.9214C52.6885 26.3664 52.5772 26.8114 52.3547 27.1452C52.1321 27.4789 51.7983 27.7571 51.3533 27.9796C50.9082 28.2021 50.4075 28.2577 49.7955 28.2577C49.4616 28.2577 49.0722 28.202 48.6271 28.1464C48.182 28.0352 47.7369 27.9239 47.2362 27.7014L47.6256 26.7558C48.0151 26.9227 48.4045 27.0339 48.7384 27.1452C49.0722 27.2008 49.406 27.2564 49.7398 27.2564C50.1849 27.2564 50.5744 27.1452 50.8525 26.9227C51.1307 26.7002 51.2976 26.3664 51.2976 26.0327C51.2976 25.7545 51.1863 25.4764 51.0194 25.2539C50.8525 25.0314 50.5744 24.8645 50.2962 24.6977C50.018 24.5308 49.6842 24.3639 49.3504 24.197C49.0165 24.0301 48.6827 23.8076 48.4046 23.6408C48.1264 23.4183 47.8482 23.1958 47.6813 22.862C47.5144 22.5839 47.4031 22.1945 47.4031 21.7495C47.4031 21.3045 47.5144 20.9151 47.7369 20.5814C47.9595 20.2476 48.2377 20.0251 48.6271 19.8583C49.0166 19.6914 49.406 19.5801 49.9067 19.5801C50.2405 19.5801 50.63 19.5801 50.9638 19.6358C51.2976 19.6914 51.6871 19.8026 52.1322 19.9139L51.7427 20.8595C51.4089 20.7482 51.0751 20.6926 50.7969 20.637C50.5187 20.5814 50.2405 20.5814 50.018 20.5814C49.6285 20.5814 49.3504 20.6926 49.1278 20.8595C48.9053 21.082 48.794 21.3045 48.794 21.5826C48.794 21.8608 48.9053 22.0833 49.0722 22.3058C49.2391 22.5283 49.5173 22.6951 49.7955 22.862C50.0736 23.0289 50.4074 23.1958 50.7413 23.3626C51.0751 23.5295 51.4089 23.752 51.6871 23.9745C51.9653 24.197 52.2434 24.4751 52.4103 24.8089C52.5772 25.087 52.6885 25.4764 52.6885 25.9214Z" fill="#121011" stroke="black" stroke-miterlimit="10"/>
<path d="M55.5817 19.5801H54.1908V28.0908H55.5817V19.5801Z" fill="#121011" stroke="black" stroke-miterlimit="10"/>
<path d="M27.7637 29.4254L26.3172 32.0398L24.7594 29.4254H21.1987L24.7594 35.266V39.5492H27.8193V35.0992L31.2688 29.3698H27.7637V29.4254ZM26.9848 38.6592H25.5939V34.9323L22.6452 30.1485H24.2586L26.5397 33.931L26.7066 34.2648L26.9848 34.7098V38.6592ZM27.3186 34.2648C27.2073 34.1535 27.1517 33.9867 27.0404 33.7641C26.9292 33.5416 26.8735 33.3191 26.8735 33.0966C26.8735 32.8741 26.8735 32.6516 27.0404 32.3735L28.2644 30.1485H29.8222L27.3186 34.2648Z" fill="white"/>
<path d="M38.9465 38.159L35.7752 29.4258H33.1604L29.4884 39.6052H32.7153L33.3829 37.6583H35.4414L36.1091 39.6052H39.3916L38.9465 38.159ZM36.7211 38.6596L35.9978 36.5458L35.9421 36.379L34.4956 32.1514L34.3843 31.7621L34.2731 32.1514L33.1604 35.4333L33.0491 35.6558H33.216H34.3843C34.6069 35.6558 34.7738 35.7115 34.9407 35.8227C35.1076 35.934 35.2189 36.0452 35.2745 36.2121C35.3858 36.379 35.4414 36.5458 35.4971 36.7127H32.8266L32.1589 38.6596H30.7124L33.7724 30.1489H35.1632L38.2232 38.6596H36.7211ZM34.5512 34.9327C34.4956 34.9327 34.44 34.9327 34.3843 34.9327H34.2731L34.3843 34.5989L34.5512 34.9327Z" fill="white"/>
<path d="M44.2876 29.4258V33.5977L41.6727 29.4258H38.9465V38.159L39.4473 39.5496H41.8396V35.0996L44.6214 39.5496H47.1806V29.3702H44.2876V29.4258ZM46.4017 38.6596H45.1221L41.172 32.374L41.005 31.9846V32.374V38.6596H39.7811V30.1489H41.172L44.9552 36.2121L45.1221 36.6571V36.2121V30.1489H46.4017V38.6596Z" fill="white"/>
<path d="M47.2363 29.4258V32.1514H49.1835V39.5496H52.2991V32.1514H54.6358V29.4258H47.2363ZM53.7456 31.2058H51.409V38.6596H49.9624V31.2058H47.6257V30.1489H53.69V31.2058H53.7456Z" fill="white"/>
<path d="M63.1481 32.5965C62.9812 31.9846 62.6474 31.4283 62.2579 30.9277C61.8128 30.4271 61.3121 29.9821 60.7001 29.704C60.0881 29.4258 59.3092 29.2589 58.4747 29.2589C57.807 29.2589 57.1394 29.3702 56.5274 29.6483C55.9154 29.8708 55.4147 30.2602 54.914 30.7608C54.8027 30.8721 54.6914 31.039 54.5801 31.2058V32.2071H54.0238C53.9682 32.2627 53.9682 32.374 53.9125 32.4296C53.69 33.0415 53.5231 33.7646 53.5231 34.5433C53.5231 35.5446 53.7456 36.4346 54.1351 37.2134C54.5245 37.9921 55.1365 38.6596 55.8598 39.1046C56.583 39.5496 57.4732 39.7721 58.4747 39.7721C59.1979 39.7721 59.9212 39.6053 60.5332 39.3271C61.1452 39.049 61.7015 38.6596 62.091 38.159C62.5361 37.6584 62.8699 37.1021 63.0924 36.4902C63.315 35.8784 63.4263 35.2108 63.4263 34.4877C63.4263 33.8202 63.3706 33.2083 63.1481 32.5965ZM62.3135 36.1009C62.1466 36.6571 61.8685 37.1021 61.479 37.4915C61.0896 37.8809 60.7001 38.2146 60.1994 38.4371C59.6986 38.6596 59.1423 38.7709 58.5303 38.7709C57.6958 38.7709 56.9725 38.604 56.3605 38.2146C55.7485 37.8252 55.2478 37.3246 54.914 36.6571C54.5802 35.9896 54.4132 35.2109 54.4132 34.3765C54.4132 33.709 54.5245 33.0971 54.7471 32.5965C54.9696 32.0402 55.2478 31.5952 55.6372 31.2058C56.0267 30.8165 56.4161 30.5383 56.9169 30.3158C57.4176 30.0933 57.9739 29.9821 58.5303 29.9821C59.2536 29.9821 59.8656 30.0933 60.3663 30.3714C60.867 30.6496 61.3121 30.9277 61.6459 31.3727C61.9797 31.8177 62.2023 32.2627 62.3692 32.819C62.5361 33.3196 62.5917 33.8759 62.5917 34.4321C62.5917 35.044 62.5361 35.6002 62.3135 36.1009Z" fill="white"/>
<path d="M29.8222 30.1489L27.3186 34.2652C27.2073 34.1539 27.1516 33.9871 27.0404 33.7646C26.9291 33.5421 26.8735 33.3196 26.8735 33.0971C26.8735 32.8746 26.8735 32.6521 27.0404 32.3739L28.2644 30.1489H29.8222Z" fill="#121011" stroke="black" stroke-miterlimit="10"/>
<path d="M26.9848 34.7102V38.6596H25.5939V34.9327L22.6452 30.1489H24.2586L26.5397 33.9314L26.7066 34.2652L26.9848 34.7102Z" fill="#121011" stroke="black" stroke-miterlimit="10"/>
<path d="M38.2788 38.6596H36.7767L36.0534 36.5458L35.9978 36.379L34.5512 32.1514L34.44 31.7621L34.3287 32.1514L33.216 35.4333L33.1047 35.6558H33.2716H34.44C34.6625 35.6558 34.8294 35.7115 34.9963 35.8227C35.1632 35.934 35.2745 36.0452 35.3301 36.2121C35.4414 36.379 35.4971 36.5458 35.5527 36.7127H32.8822L32.2145 38.6596H30.768L33.828 30.1489H35.2189L38.2788 38.6596Z" fill="#121011" stroke="black" stroke-miterlimit="10"/>
<path d="M46.4017 30.1489V38.6596H45.1221L41.172 32.3739L41.005 31.9846V32.3739V38.6596H39.7811V30.1489H41.172L45.0108 36.2121L45.1221 36.6571V36.2121V30.1489H46.4017Z" fill="#121011" stroke="black" stroke-miterlimit="10"/>
<path d="M53.7456 30.1489V31.2058H51.4645V38.6596H50.018V31.2058H47.6813V30.1489H53.7456Z" fill="#121011" stroke="black" stroke-miterlimit="10"/>
<path d="M62.3692 32.8189C62.2023 32.2627 61.9797 31.8177 61.6459 31.3727C61.3121 30.9277 60.867 30.5939 60.3663 30.3714C59.8656 30.1489 59.2536 29.9821 58.5303 29.9821C57.9183 29.9821 57.4176 30.0933 56.9169 30.3158C56.4162 30.5383 55.9711 30.8164 55.6373 31.2058C55.2478 31.5952 54.9696 32.0402 54.7471 32.5964C54.5245 33.1527 54.4133 33.7089 54.4133 34.3765C54.4133 35.2665 54.5802 35.9896 54.914 36.6571C55.2478 37.3246 55.7485 37.8252 56.3605 38.2146C56.9725 38.604 57.6958 38.7709 58.5303 38.7709C59.1423 38.7709 59.6987 38.6596 60.1994 38.4371C60.7001 38.2146 61.1452 37.8809 61.479 37.4915C61.8128 37.1021 62.091 36.6015 62.3136 36.1008C62.5361 35.5446 62.5917 34.9883 62.5917 34.3765C62.5917 33.8758 62.5361 33.3196 62.3692 32.8189ZM60.7557 36.1565C60.5332 36.6571 60.1994 37.0465 59.8099 37.3246C59.4205 37.6027 58.9754 37.714 58.5303 37.714C58.1409 37.714 57.7514 37.6027 57.4732 37.4358C57.1951 37.269 56.8612 36.9908 56.6387 36.7127C56.4162 36.379 56.2493 36.0452 56.138 35.6558C56.0267 35.2665 55.9711 34.8215 55.9711 34.3765C55.9711 33.7646 56.0823 33.1527 56.3049 32.6521C56.5274 32.1514 56.8056 31.7621 57.1951 31.4283C57.5845 31.1502 58.0296 30.9833 58.586 30.9833C59.0867 30.9833 59.5318 31.1502 59.9212 31.4283C60.3107 31.7064 60.5888 32.0958 60.8114 32.5964C61.0339 33.0971 61.1452 33.7089 61.1452 34.3208C61.0896 35.0996 60.9783 35.6558 60.7557 36.1565Z" fill="#121011" stroke="black" stroke-miterlimit="10"/>
<path d="M60.7557 32.6521C60.5332 32.1514 60.255 31.762 59.8655 31.4839C59.4761 31.2058 59.031 31.0389 58.5303 31.0389C58.0296 31.0389 57.5288 31.2058 57.1394 31.4839C56.7499 31.762 56.4717 32.2071 56.2492 32.7077C56.0267 33.2083 55.9154 33.7646 55.9154 34.4321C55.9154 34.8771 55.971 35.3221 56.0823 35.7115C56.1936 36.1008 56.3605 36.4902 56.583 36.7683C56.8056 37.1021 57.0837 37.3246 57.4176 37.4915C57.7514 37.6583 58.0852 37.7696 58.4746 37.7696C58.9197 37.7696 59.3648 37.6027 59.7543 37.3802C60.1437 37.1021 60.4775 36.7127 60.7001 36.2121C60.9226 35.7114 61.0339 35.0996 61.0339 34.4321C61.0895 33.7646 60.9783 33.1527 60.7557 32.6521ZM59.9768 35.8783C59.8099 36.2121 59.5874 36.5458 59.3092 36.7127C59.031 36.8796 58.8085 36.9908 58.4746 36.9908C58.1965 36.9908 58.0296 36.9352 57.807 36.824C57.5845 36.7127 57.4176 36.5458 57.2507 36.3233C57.0838 36.1008 56.9725 35.8227 56.8612 35.489C56.7499 35.1552 56.6943 34.8215 56.6943 34.4321C56.6943 33.9314 56.7499 33.4308 56.9168 33.0414C57.0838 32.6521 57.2507 32.3739 57.5288 32.2071C57.7514 32.0402 58.0296 31.9289 58.3634 31.9289C58.6972 31.9289 58.9754 32.0402 59.1979 32.2071C59.4761 32.3739 59.643 32.7077 59.8099 33.0414C59.9768 33.4308 60.0881 33.9314 60.0881 34.4321C60.255 35.044 60.1437 35.4889 59.9768 35.8783Z" fill="white"/>
<path d="M26.2059 42.3865C26.2059 42.2196 26.1502 42.1083 25.9277 42.0527L25.6495 41.9971C25.3713 41.8858 25.2601 41.7746 25.2601 41.5521C25.2601 41.3852 25.3157 41.274 25.4826 41.2183C25.6495 41.1627 25.7608 41.1071 25.9277 41.1071C26.0946 41.1071 26.2615 41.1627 26.3728 41.274C26.4841 41.3852 26.5397 41.4965 26.5397 41.6633H26.3728C26.3728 41.5521 26.3728 41.4965 26.2615 41.3852C26.1502 41.274 26.0946 41.274 25.9833 41.274C25.8721 41.274 25.7608 41.3296 25.6495 41.3852C25.5383 41.4408 25.5383 41.4965 25.4826 41.6077C25.4826 41.7746 25.5383 41.8302 25.7608 41.8858L25.9833 41.9415L26.0946 41.9971C26.3172 42.1083 26.4284 42.2196 26.4284 42.4421C26.4284 42.609 26.3728 42.7202 26.2615 42.7758C26.1502 42.8315 25.9833 42.9427 25.8164 42.9427H25.7608C25.6495 42.9427 25.5383 42.9427 25.427 42.8871C25.3157 42.8315 25.2601 42.7758 25.2044 42.7202C25.1488 42.6646 25.1488 42.5533 25.1488 42.4421H25.3157C25.3157 42.5533 25.3713 42.6646 25.427 42.7202C25.4826 42.7758 25.5939 42.8315 25.7608 42.8315C25.8721 42.8315 25.9833 42.7758 26.0946 42.7202C26.2059 42.6646 26.1502 42.4977 26.2059 42.3865Z" fill="black"/>
<path d="M27.4298 42.8871C27.2629 42.8871 27.1517 42.8315 27.0404 42.7759C26.9291 42.7202 26.8735 42.609 26.8178 42.4421C26.7622 42.2752 26.7622 42.164 26.7622 41.9971V41.9415C26.7622 41.7746 26.8179 41.6077 26.9291 41.4965C27.0404 41.3852 27.096 41.2183 27.2629 41.1627C27.4299 41.1071 27.5411 41.0515 27.6524 41.0515C27.7637 41.0515 27.8749 41.1071 27.9862 41.1627C28.0975 41.2183 28.1531 41.3296 28.2087 41.4409C28.2644 41.5521 28.2644 41.719 28.2644 41.8302V41.9415H27.0404V41.9971C27.0404 42.1084 27.0404 42.2196 27.0404 42.3309C27.0404 42.4421 27.1517 42.4977 27.2073 42.609C27.2629 42.7202 27.3742 42.7202 27.4855 42.7202C27.5968 42.7202 27.708 42.7202 27.7637 42.6646C27.8193 42.609 27.9306 42.5534 27.9862 42.4977L28.0975 42.609C28.0418 42.7202 27.9306 42.7759 27.8193 42.8315C27.708 42.8871 27.5411 42.8871 27.4298 42.8871ZM27.6524 41.2184C27.4855 41.2184 27.3742 41.274 27.2629 41.3852C27.1517 41.4965 27.0404 41.6634 26.9848 41.8302H27.9862C27.9862 41.6634 27.9862 41.5521 27.9306 41.4409C27.8749 41.3296 27.7637 41.2184 27.6524 41.2184Z" fill="black"/>
<path d="M29.4884 41.274C29.4328 41.274 29.3772 41.274 29.3772 41.274C29.2659 41.274 29.1546 41.3296 29.0433 41.3852C28.9321 41.4408 28.8764 41.5521 28.8208 41.6633L28.5983 42.8871H28.4313L28.7652 41.1071H28.9321L28.8764 41.3852C28.9321 41.274 29.0433 41.2183 29.099 41.1627C29.1546 41.1071 29.2659 41.1071 29.3772 41.1071C29.4328 41.1071 29.4328 41.1071 29.4884 41.1071V41.274Z" fill="black"/>
<path d="M30.156 42.5534L30.9349 41.0515H31.1575L30.2673 42.8315H30.1004L29.7109 41.0515H29.8778L30.156 42.5534Z" fill="black"/>
<path d="M31.3244 42.8315H31.1019L31.4357 41.0515H31.6026L31.3244 42.8315ZM31.4913 40.6064C31.4913 40.5508 31.547 40.4952 31.6582 40.4952C31.7139 40.4952 31.7139 40.4952 31.7695 40.5508C31.8251 40.6065 31.8251 40.6065 31.8251 40.6621C31.8251 40.7177 31.8251 40.7177 31.7695 40.7733C31.7139 40.829 31.7139 40.829 31.6582 40.829C31.547 40.7177 31.4913 40.6621 31.4913 40.6064Z" fill="black"/>
<path d="M32.5484 42.7202C32.6597 42.7202 32.771 42.6646 32.8822 42.609C32.9935 42.5533 33.0492 42.4421 33.1048 42.3308H33.2717C33.2161 42.4977 33.1604 42.6646 32.9935 42.7758C32.8266 42.8871 32.7153 42.9427 32.4928 42.9427C32.3259 42.9427 32.2146 42.8871 32.159 42.8315C32.1033 42.7758 31.9921 42.6646 31.9364 42.4977C31.8808 42.3308 31.8808 42.2196 31.8808 42.0527V41.9971C31.8808 41.8858 31.9364 41.7746 31.9921 41.6633C32.0477 41.5521 32.1033 41.4408 32.159 41.3852C32.2146 41.3296 32.3259 41.2183 32.4372 41.1627C32.5484 41.1071 32.6597 41.1071 32.771 41.1071C32.9379 41.1071 33.1048 41.1627 33.2161 41.274C33.3273 41.3852 33.383 41.5521 33.383 41.719H33.2161C33.2161 41.6077 33.1604 41.4965 33.1048 41.3852C33.0492 41.274 32.9379 41.274 32.8266 41.274C32.7153 41.274 32.5484 41.3296 32.4928 41.3852C32.4372 41.4408 32.3259 41.6077 32.2703 41.719C32.2146 41.8302 32.2146 42.0527 32.2146 42.2196C32.2146 42.3865 32.2702 42.5533 32.3259 42.609C32.3815 42.6646 32.3815 42.7202 32.5484 42.7202Z" fill="black"/>
<path d="M34.2731 42.8871C34.1062 42.8871 33.9949 42.8315 33.8836 42.7759C33.7724 42.7202 33.7167 42.609 33.6611 42.4421C33.6055 42.2752 33.6055 42.164 33.6055 41.9971V41.9415C33.6055 41.7746 33.6611 41.6077 33.7724 41.4965C33.8836 41.3852 33.9393 41.2183 34.1062 41.1627C34.2731 41.1071 34.3844 41.0515 34.4956 41.0515C34.6069 41.0515 34.7182 41.1071 34.8294 41.1627C34.9407 41.2183 34.9964 41.3296 35.052 41.4409C35.1076 41.5521 35.1076 41.719 35.1076 41.8302V41.9415H33.8836V41.9971C33.8836 42.1084 33.8836 42.2196 33.8836 42.3309C33.8836 42.4421 33.9949 42.4977 34.0505 42.609C34.1062 42.7202 34.2175 42.7202 34.3287 42.7202C34.44 42.7202 34.5513 42.7202 34.6069 42.6646C34.6625 42.609 34.7738 42.5534 34.8294 42.4977L34.9407 42.609C34.8851 42.7202 34.7738 42.7759 34.6625 42.8315C34.5513 42.8871 34.3844 42.8871 34.2731 42.8871ZM34.44 41.2184C34.2731 41.2184 34.1618 41.274 34.0505 41.3852C33.9393 41.4965 33.828 41.6634 33.7724 41.8302H34.7738C34.7738 41.6634 34.7738 41.5521 34.7182 41.4409C34.6625 41.3296 34.6069 41.2184 34.44 41.2184Z" fill="black"/>
<path d="M35.2189 42.7202C35.2189 42.6646 35.2189 42.6646 35.2745 42.609C35.3301 42.5533 35.3301 42.5533 35.3858 42.5533C35.4414 42.5533 35.4414 42.5533 35.4971 42.609C35.5527 42.6646 35.5527 42.6646 35.5527 42.7202C35.5527 42.7759 35.5527 42.7758 35.4971 42.8315C35.4414 42.8871 35.4414 42.8871 35.3858 42.8871C35.3301 42.8871 35.3301 42.8871 35.2745 42.8315C35.2189 42.7758 35.2189 42.7759 35.2189 42.7202Z" fill="black"/>
<path d="M37.9451 42.3865C37.9451 42.2196 37.8894 42.1083 37.6669 42.0527L37.3887 41.9971C37.1105 41.8858 36.9993 41.7746 36.9993 41.5521C36.9993 41.3852 37.0549 41.274 37.2218 41.2183C37.3887 41.1627 37.5 41.1071 37.6669 41.1071C37.8338 41.1071 38.0007 41.1627 38.112 41.274C38.2233 41.3852 38.2789 41.4965 38.2789 41.6633H38.112C38.112 41.5521 38.112 41.4965 38.0007 41.3852C37.8894 41.274 37.8338 41.274 37.7225 41.274C37.6113 41.274 37.5 41.3296 37.3887 41.3852C37.2774 41.4408 37.2775 41.4965 37.2218 41.6077C37.2218 41.7746 37.2775 41.8302 37.5 41.8858L37.7225 41.9415L37.8338 41.9971C38.0564 42.1083 38.1676 42.2196 38.1676 42.4421C38.1676 42.609 38.112 42.7202 38.0007 42.7758C37.8894 42.8871 37.7225 42.9427 37.5556 42.9427H37.5C37.3887 42.9427 37.2775 42.9427 37.1662 42.8871C37.0549 42.8315 36.9993 42.7758 36.9436 42.7202C36.888 42.6646 36.888 42.5533 36.888 42.4421H37.0549C37.0549 42.5533 37.1105 42.6646 37.1662 42.7202C37.2218 42.7758 37.3331 42.8315 37.5 42.8315C37.6113 42.8315 37.7225 42.7758 37.8338 42.7202C37.9451 42.6646 37.9451 42.4977 37.9451 42.3865Z" fill="black"/>
<path d="M39.2247 42.8871C39.1135 42.8871 39.0022 42.8871 38.9466 42.8315C38.8353 42.7759 38.7796 42.7202 38.724 42.6646L38.5571 43.5546H38.3902L38.8353 41.1071H39.0022L38.9466 41.3296C39.1135 41.1627 39.2804 41.0515 39.5029 41.0515C39.6698 41.0515 39.7811 41.1071 39.8924 41.2184C40.0036 41.3296 40.0593 41.4965 40.0593 41.719C40.0593 41.7746 40.0593 41.8302 40.0593 41.9415V41.9971C40.0593 42.164 40.0036 42.3309 39.8924 42.4977C39.7811 42.6646 39.7254 42.7202 39.6142 42.8315C39.5029 42.9427 39.336 42.8871 39.2247 42.8871ZM39.8367 41.9415V41.7746C39.8367 41.6077 39.7811 41.4409 39.7255 41.3852C39.6698 41.274 39.5585 41.2184 39.4473 41.2184C39.336 41.2184 39.2247 41.2184 39.1135 41.3296C39.0022 41.3852 38.9466 41.4965 38.8909 41.6077L38.724 42.4421C38.7796 42.5534 38.8353 42.609 38.8909 42.6646C38.9466 42.7202 39.0578 42.7202 39.1691 42.7202C39.336 42.7202 39.4473 42.6646 39.5585 42.5534C39.6698 42.4421 39.7255 42.2752 39.7811 42.0527L39.8367 41.9415Z" fill="black"/>
<path d="M41.3945 42.8315C41.3945 42.7759 41.3945 42.7759 41.3945 42.7202V42.609C41.3389 42.7202 41.2276 42.7759 41.1163 42.8315C41.0051 42.8871 40.8938 42.8871 40.7825 42.8871C40.6156 42.8871 40.5043 42.8315 40.3931 42.7202C40.2818 42.609 40.2818 42.4977 40.2818 42.3865C40.2818 42.2752 40.3374 42.164 40.3931 42.1084C40.4487 42.0527 40.56 41.9415 40.6712 41.8859C40.7825 41.8302 40.9494 41.8302 41.1163 41.8302H41.4502L41.5058 41.6077C41.5058 41.4965 41.5058 41.3852 41.4502 41.3296C41.3945 41.274 41.2832 41.2184 41.172 41.2184C41.0607 41.2184 40.9494 41.274 40.8382 41.3296C40.7269 41.3852 40.6712 41.4965 40.6712 41.6077H40.5043C40.5043 41.4409 40.6156 41.3296 40.7269 41.2184C40.8382 41.1071 41.0051 41.0515 41.2276 41.0515C41.3945 41.0515 41.5614 41.1071 41.6727 41.2184C41.784 41.3296 41.784 41.4409 41.784 41.6077L41.6171 42.4977V42.6646C41.6171 42.7202 41.6171 42.7759 41.6171 42.8315H41.3945ZM40.8382 42.7202C40.9494 42.7202 41.0607 42.7202 41.172 42.609C41.2832 42.5534 41.3945 42.4421 41.4502 42.3309L41.5058 41.9415H41.172C40.9494 41.9415 40.8381 41.9971 40.6712 42.0527C40.56 42.1084 40.5043 42.2196 40.4487 42.3309C40.4487 42.4421 40.4487 42.4977 40.5043 42.5534C40.6156 42.6646 40.7269 42.7202 40.8382 42.7202Z" fill="black"/>
<path d="M43.1192 41.274C43.0636 41.274 43.0079 41.274 43.0079 41.274C42.8967 41.274 42.7854 41.3296 42.6741 41.3852C42.5629 41.4408 42.5072 41.5521 42.4516 41.6633L42.2291 42.8871H42.0621L42.396 41.1071H42.5629L42.5072 41.3852C42.5629 41.274 42.6741 41.2183 42.7298 41.1627C42.7854 41.1071 42.8967 41.1071 43.0079 41.1071C43.0636 41.1071 43.0636 41.1071 43.1192 41.1071V41.274Z" fill="black"/>
<path d="M43.8424 42.8871C43.6755 42.8871 43.5643 42.8315 43.453 42.7759C43.3417 42.7202 43.2861 42.609 43.2304 42.4421C43.1748 42.3309 43.1748 42.164 43.1748 41.9971V41.9415C43.1748 41.7746 43.2305 41.6077 43.3417 41.4965C43.453 41.3852 43.5086 41.2183 43.6755 41.1627C43.8424 41.1071 43.9537 41.0515 44.065 41.0515C44.1763 41.0515 44.2875 41.1071 44.3988 41.1627C44.5101 41.2183 44.5657 41.3296 44.6213 41.4409C44.677 41.5521 44.677 41.719 44.677 41.8302V41.9415H43.453V41.9971C43.453 42.1084 43.453 42.2196 43.453 42.3309C43.453 42.4421 43.5643 42.4977 43.6199 42.609C43.6755 42.6646 43.7868 42.7202 43.8981 42.7202C44.0094 42.7202 44.1206 42.7202 44.1763 42.6646C44.2319 42.609 44.3432 42.5534 44.3988 42.4977L44.5101 42.609C44.4544 42.7202 44.3432 42.7759 44.2319 42.8315C44.065 42.8871 43.9537 42.8871 43.8424 42.8871ZM44.0093 41.2184C43.8424 41.2184 43.7312 41.274 43.6199 41.3852C43.5086 41.4965 43.3974 41.6634 43.3417 41.8302H44.3432C44.3432 41.6634 44.3432 41.5521 44.2875 41.4409C44.2319 41.3296 44.1762 41.2184 44.0093 41.2184Z" fill="black"/>
<path d="M45.5672 42.8871C45.4559 42.8871 45.3447 42.8871 45.289 42.8315C45.1778 42.7759 45.1221 42.7202 45.0665 42.6646L44.8996 43.5546H44.7327L45.1777 41.1071H45.3447L45.289 41.3296C45.4559 41.1627 45.6228 41.0515 45.8454 41.0515C46.0123 41.0515 46.1236 41.1071 46.2348 41.2184C46.3461 41.3296 46.4017 41.4965 46.4017 41.719C46.4017 41.7746 46.4017 41.8302 46.4017 41.9415V41.9971C46.4017 42.164 46.3461 42.3309 46.2348 42.4977C46.1236 42.6646 46.0679 42.7202 45.9566 42.8315C45.8454 42.9427 45.6785 42.8871 45.5672 42.8871ZM46.1236 41.9415V41.7746C46.1236 41.6077 46.0679 41.4409 46.0123 41.3852C45.9566 41.274 45.8454 41.2184 45.7341 41.2184C45.6228 41.2184 45.5116 41.2184 45.4003 41.3296C45.289 41.3852 45.2334 41.4965 45.1777 41.6077L45.0108 42.4421C45.0665 42.5534 45.1221 42.609 45.1777 42.6646C45.2334 42.7202 45.3447 42.7202 45.4559 42.7202C45.6228 42.7202 45.7341 42.6646 45.8454 42.5534C45.9567 42.4421 46.0123 42.2752 46.0679 42.0527L46.1236 41.9415Z" fill="black"/>
<path d="M47.737 42.8315C47.737 42.7759 47.737 42.7759 47.737 42.7202V42.609C47.6813 42.7202 47.5701 42.7759 47.4588 42.8315C47.3475 42.8871 47.2363 42.8871 47.125 42.8871C46.9581 42.8871 46.8468 42.8315 46.7355 42.7202C46.6243 42.609 46.6243 42.4977 46.6243 42.3865C46.6243 42.2752 46.6799 42.164 46.7355 42.1084C46.7912 42.0527 46.9025 41.9415 47.0137 41.8859C47.125 41.8302 47.2919 41.8302 47.4588 41.8302H47.7926L47.8483 41.6077C47.8483 41.4965 47.8483 41.3852 47.7926 41.3296C47.737 41.274 47.6257 41.2184 47.5144 41.2184C47.4032 41.2184 47.2919 41.274 47.1806 41.3296C47.0694 41.3852 47.0137 41.4965 47.0137 41.6077H46.8468C46.8468 41.4409 46.9581 41.3296 47.0693 41.2184C47.1806 41.1071 47.3475 41.0515 47.5701 41.0515C47.737 41.0515 47.9039 41.1071 48.0152 41.2184C48.1264 41.3296 48.1264 41.4409 48.1264 41.6077L47.9595 42.4977V42.6646C47.9595 42.7202 47.9595 42.7759 47.9595 42.8315H47.737ZM47.125 42.7202C47.2363 42.7202 47.3475 42.7202 47.4588 42.609C47.5701 42.5534 47.6813 42.4421 47.737 42.3309L47.7926 41.9415H47.4588C47.2363 41.9415 47.125 41.9971 46.9581 42.0527C46.8468 42.1084 46.7912 42.2196 46.7355 42.3309C46.7355 42.4421 46.7355 42.4977 46.7912 42.5534C46.9581 42.6646 47.0137 42.7202 47.125 42.7202Z" fill="black"/>
<path d="M49.4616 41.274C49.406 41.274 49.3503 41.274 49.3503 41.274C49.2391 41.274 49.1278 41.3296 49.0165 41.3852C48.9052 41.4408 48.8496 41.5521 48.794 41.6633L48.5714 42.8871H48.4045L48.7383 41.1071H48.9053L48.8496 41.3852C48.9053 41.274 49.0165 41.2183 49.0722 41.1627C49.1278 41.1071 49.2391 41.1071 49.3503 41.1071C49.406 41.1071 49.406 41.1071 49.4616 41.1071V41.274Z" fill="black"/>
<path d="M50.2405 40.6621L50.1849 41.1071H50.5187V41.274H50.1849L49.9624 42.4421V42.5534C49.9624 42.6646 50.018 42.7203 50.1293 42.7203C50.1849 42.7203 50.2405 42.7203 50.2962 42.7203V42.8871C50.2405 42.8871 50.1849 42.8871 50.0736 42.8871C49.9624 42.8871 49.8511 42.8315 49.8511 42.7759C49.8511 42.7203 49.7955 42.609 49.7955 42.4421L49.9624 41.274H49.6285L49.6842 41.1071H50.018L50.0736 40.6621H50.2405Z" fill="black"/>
</svg>
