<svg width="77" height="57" viewBox="0 0 77 57" fill="none" xmlns="http://www.w3.org/2000/svg">
<path d="M60.7771 33.9684C59.7191 33.8504 58.7786 33.8504 57.603 33.8504C57.603 33.7325 57.603 33.7325 57.7206 33.6146C57.8381 33.4966 57.8381 33.3787 57.9557 33.2607C58.5435 33.2607 59.0137 33.2607 59.4839 33.2607C59.8366 33.2607 60.1893 33.2607 60.542 33.2607C60.6595 33.3787 60.7771 33.4966 60.7771 33.7325C60.7771 33.7325 60.7771 33.8504 60.7771 33.9684Z" fill="#404040"/>
<path d="M43.9664 27.4813C43.2611 27.4813 42.5557 27.4813 41.8504 27.5992L41.8505 27.4814L43.9664 27.4813Z" fill="#404040"/>
<path d="M60.3068 33.0248C59.9542 33.0248 59.7191 33.0248 59.3664 33.0248H58.0733C58.1908 32.9068 58.1908 32.9068 58.3084 32.7889C58.5435 32.553 58.7786 32.553 59.1313 32.553C59.4839 32.553 59.7191 32.6709 59.9542 32.7889C60.0717 32.7889 60.1893 32.9068 60.3068 33.0248Z" fill="#404040"/>
<path d="M35.3848 27.7173C35.0321 27.7173 34.5619 27.7173 34.2092 27.7173V26.7736C34.5619 26.7736 34.797 26.7736 35.1497 26.7736V27.0096C35.2672 27.2455 35.2672 27.4814 35.3848 27.7173Z" fill="#404040"/>
<path d="M44.7893 33.7326L44.7893 34.2041L44.5542 33.7324L44.7893 33.7326Z" fill="#404040"/>
<path d="M44.7892 31.3734L44.7893 33.1428C44.5542 33.1428 44.319 33.1426 44.2015 33.1426L43.1434 31.4914C43.6137 31.3735 44.2014 31.3734 44.7892 31.3734Z" fill="#404040"/>
<path d="M26.9206 31.8453L26.5679 32.553L26.0977 31.8453C26.4504 31.8453 26.6855 31.8453 26.9206 31.8453Z" fill="#404040"/>
<path d="M32.7986 31.8453L32.2108 33.3786C31.623 33.3786 30.9176 33.3786 30.3299 33.4966C29.9772 33.4966 29.7421 33.4966 29.3894 33.4966L30.3299 31.9633C31.2703 31.8453 31.9757 31.8453 32.7986 31.8453Z" fill="#404040"/>
<path d="M39.3816 31.7273L39.3816 33.2607C38.6763 33.2607 38.0885 33.2607 37.3832 33.2607L36.7954 31.7273C37.7358 31.7273 38.5587 31.7273 39.3816 31.7273Z" fill="#404040"/>
<path d="M49.7266 32.6709V33.0247C49.2564 33.0247 48.9037 33.0247 48.4335 33.0247C48.1984 33.0247 47.9632 33.0247 47.8457 33.0247V32.6709H49.7266Z" fill="#404040"/>
<path d="M24.2168 34.6759C22.3359 34.6759 20.6901 34.7939 19.2794 34.7939C16.3404 34.7939 15.1649 36.2092 13.8717 37.6246C12.6962 38.922 11.403 40.3373 8.69923 40.4553C3.40916 40.5732 1.99847 38.5682 1.99847 38.4502L1.6458 37.9784L7.75877 35.8554C7.99388 35.3836 8.93434 33.8503 8.229 31.3735C7.64122 29.0146 6.11297 28.7787 5.87786 28.7787L0 30.6658V29.9581C0 27.5992 1.52825 25.948 5.17252 24.1788C9.0519 22.4096 11.9908 24.4147 13.4015 25.83C13.6366 26.0659 13.9893 26.3018 14.2244 26.4198C14.4595 27.0095 14.8122 27.4813 15.1649 27.8351C14.2244 27.5992 13.4015 27.1274 12.6962 26.5377C11.1679 25.1224 8.69923 23.707 5.52518 25.1223C2.11602 26.7736 1.17557 28.071 0.940452 29.2504L5.64274 27.7172H5.7603C6.70076 27.7172 8.58167 28.3069 9.28702 31.0196C10.1099 34.3221 8.58167 36.3272 8.46411 36.4451L8.34656 36.5631L3.40916 38.3323C4.1145 38.8041 5.7603 39.5117 8.69923 39.3938C9.63969 39.3938 10.4626 39.1579 11.0504 38.8041C11.1679 38.6861 11.2855 38.5682 11.403 38.4502C11.5206 38.2143 11.7557 37.9784 11.9908 37.7425C12.2259 37.5067 12.4611 37.1528 12.5786 36.799C12.8137 36.4451 13.0488 36.0913 13.1664 35.6195C13.4015 35.1477 13.5191 34.7939 13.6366 34.3221C13.7542 33.8503 13.7542 33.3785 13.7542 32.7888C13.7542 32.1991 13.7542 31.7273 13.6366 31.2555V30.9017C13.6366 30.7837 13.6366 30.6658 13.5191 30.5479C13.5191 30.312 13.4015 30.0761 13.284 29.8402C13.0488 29.3684 12.8137 29.0146 12.4611 28.6607C12.1084 28.3069 11.7557 27.9531 11.403 27.7172C11.0504 27.4813 10.6977 27.1274 10.345 26.8915C9.99235 26.6556 9.63969 26.4197 9.40457 26.3018C9.16946 26.0659 8.81679 25.948 8.69923 25.83C8.229 25.5941 7.99388 25.4762 7.99388 25.4762C7.99388 25.4762 8.34656 25.4762 8.81679 25.5941C9.0519 25.5941 9.40457 25.7121 9.63968 25.83C9.99235 25.948 10.345 26.0659 10.6977 26.3018C11.0504 26.5377 11.5206 26.6556 11.9908 27.0095C12.4611 27.2454 12.8137 27.5992 13.284 27.9531C13.6366 28.3069 14.1069 28.7787 14.342 29.3684C14.4595 29.6043 14.5771 29.9581 14.6946 30.312C14.6946 30.4299 14.8122 30.6658 14.8122 30.7837V30.9017C15.9878 31.1376 18.4565 31.6094 22.571 31.8453L23.7465 33.8503C23.3939 33.8503 23.0412 33.8503 22.6885 33.8503C21.513 33.8503 20.4549 33.9683 19.5145 33.9683C18.574 34.0862 17.7511 34.2042 17.1633 34.3221C16.458 34.4401 15.9878 34.676 15.7527 34.9119C15.6351 35.0298 15.5175 35.0298 15.4 35.1477C15.5175 35.1477 15.6351 35.0298 15.7527 34.9119C16.1053 34.7939 16.5756 34.558 17.1633 34.44C17.7511 34.3221 18.574 34.2042 19.5145 34.0862C20.4549 34.0862 21.513 34.0862 22.6885 34.0862C23.1588 34.0862 23.5114 34.0862 23.9817 34.0862L24.2168 34.6759Z" fill="#404040"/>
<path d="M54.4288 33.3786C54.4288 33.6145 54.3113 33.7324 54.3113 33.9683C53.8411 33.9683 53.3708 33.9683 52.9006 33.9683V33.4965C53.3708 33.4965 53.9586 33.3786 54.4288 33.3786Z" fill="#404040"/>
<path d="M32.093 33.9683L31.8579 34.4401C30.7999 34.4401 29.7419 34.4402 28.8014 34.5581L29.1541 33.9683C29.6243 33.9683 29.977 33.9683 30.4472 33.9683C31.035 33.9683 31.5053 33.9683 32.093 33.9683Z" fill="#404040"/>
<path d="M49.7266 33.4965L49.7268 33.9684C49.139 33.9684 48.4336 33.9684 47.7283 33.9684V33.4966C47.9634 33.4966 48.1985 33.4966 48.3161 33.4966C48.9039 33.6146 49.2564 33.4965 49.7266 33.4965Z" fill="#404040"/>
<path d="M39.3816 33.8504L39.3816 34.3222C38.7939 34.3222 38.3236 34.3222 37.7358 34.3222L37.6183 33.8504C38.2061 33.8504 38.7939 33.8504 39.3816 33.8504Z" fill="#404040"/>
<path d="M76.9999 29.2506L76.7648 30.1942C75.9419 33.1428 74.061 35.2658 71.5923 36.2094C69.3587 37.035 66.89 36.7991 65.2442 35.6197C64.8916 35.3838 64.5389 35.1479 64.3038 35.0299C64.3038 34.4402 64.1862 33.7325 63.9511 33.1428C63.716 32.5531 63.4809 31.9633 63.0106 31.3736C62.5404 30.7839 62.0702 30.4301 61.4824 30.0762C61.1297 29.9583 60.7771 29.8403 60.3068 29.7224C60.8946 29.6044 61.6 29.6044 62.1878 29.4865C62.0702 29.0147 62.0702 28.5429 62.0702 28.0711C62.0702 27.4814 62.1877 26.8917 62.3053 26.302C62.4229 25.8302 62.7755 25.3584 63.0106 24.8866C63.2458 24.5328 63.5984 24.1789 63.8335 23.943C64.0687 23.7071 64.3038 23.4713 64.5389 23.3533C64.774 23.2354 64.8916 23.1174 65.0091 22.9995C65.0091 22.9995 65.1267 22.9995 65.1267 22.8815C65.1267 22.8815 64.8916 23.1174 64.6564 23.4713C64.5389 23.5892 64.5389 23.7072 64.4213 23.8251C64.3038 23.943 64.3038 24.061 64.1862 24.1789C63.9511 24.5328 63.8335 24.7687 63.5984 25.1225C63.3633 25.4763 63.2458 25.9481 63.1282 26.4199C63.0107 26.8917 63.0106 27.3635 63.0106 27.8352C63.0106 28.307 63.1282 28.8968 63.2458 29.3685C63.3633 29.9583 63.5984 30.4301 63.716 30.9018C63.8336 31.3736 64.1862 31.9634 64.4213 32.4351C64.5389 32.5531 64.5389 32.671 64.6564 32.789C64.774 32.9069 64.774 33.0249 64.8916 33.1428C65.0091 33.3787 65.2442 33.4967 65.3618 33.7325C65.7145 34.0864 66.0671 34.4402 66.5374 34.6761C66.89 34.912 67.3603 35.0299 67.7129 35.1479C68.0656 35.2658 68.5358 35.2658 68.8885 35.2658C69.2412 35.2658 69.5938 35.2658 69.829 35.2658C69.9465 35.2658 70.0641 35.2658 70.1816 35.2658C70.5343 35.1479 70.7694 35.1479 71.1221 35.0299C73.1206 34.3222 74.5312 32.789 75.3541 30.666L71.3572 32.0813H71.2396C71.1221 32.0813 68.3007 32.0813 67.2427 29.3685C66.1847 26.8917 67.3603 24.5328 67.3603 24.4148L67.4778 24.1789L72.0625 22.2918C71.3572 21.7021 69.829 20.9944 66.6549 21.5841C64.774 22.0559 63.9511 22.8815 63.1282 23.8251C62.0702 25.1225 60.7771 26.5379 57.0152 26.7737V25.8302C60.3068 25.5943 61.3648 24.4148 62.4229 23.2354C63.3633 22.1739 64.1862 21.1124 66.4198 20.6406C71.5923 19.4611 73.2381 22.0559 73.2381 22.1739L73.5908 22.6456L68.1832 24.8866C67.948 25.3584 67.4778 27.1276 68.1832 28.8968C68.8885 30.666 70.7694 30.9018 71.2396 31.0198L76.9999 29.2506Z" fill="#404040"/>
<path d="M57.0154 30.1941C56.5451 30.43 55.9573 30.7839 55.6047 31.2557C55.4871 31.3736 55.3695 31.4915 55.252 31.7274V30.43C55.8398 30.3121 56.4276 30.3121 57.0154 30.1941Z" fill="#404040"/>
<path d="M31.0351 26.8916V27.5993L30.6824 26.8916H31.0351Z" fill="#404040"/>
<path d="M38.9114 26.6556L38.5588 27.5992C38.5588 27.4813 38.4412 27.3633 38.4412 27.2454C38.4412 27.0095 38.3236 26.8915 38.3236 26.7736C38.5588 26.6556 38.6763 26.6556 38.9114 26.6556Z" fill="#404040"/>
<path d="M51.0198 26.3018C51.0198 26.3018 51.0197 26.4198 50.9022 26.5377C50.6671 26.7736 50.1969 26.7736 49.4915 26.6557C49.1388 26.6557 48.9037 26.5377 48.551 26.3018C49.4915 26.3018 50.3144 26.3018 51.0198 26.3018Z" fill="#404040"/>
<path d="M47.493 26.4199L47.1403 27.2455L46.7876 26.4199C47.1403 26.4199 47.3754 26.4199 47.493 26.4199Z" fill="#404040"/>
<path d="M27.7435 27.9532C26.803 27.9532 25.9801 27.9532 25.2748 28.0711L25.5099 27.4814H27.6259L27.7435 27.9532Z" fill="#404040"/>
<path d="M54.664 32.6709C54.664 32.7888 54.5464 32.7888 54.5464 32.9068C54.5464 32.9068 54.5464 32.9068 54.5464 33.0248C53.9586 33.0248 53.4884 33.0247 52.9006 33.0247V32.6709H54.664Z" fill="#404040"/>
<path d="M68.6535 34.558C68.8886 34.558 69.1237 34.6759 69.3588 34.6759C69.5939 34.6759 69.8291 34.6759 70.1817 34.6759C70.4169 34.6759 70.7695 34.558 71.0046 34.558C71.2398 34.558 71.5924 34.44 71.8275 34.3221C72.0627 34.2041 72.4153 34.0862 72.6504 33.9682C72.8856 33.8503 73.1207 33.6144 73.3558 33.4965C73.4733 33.3785 73.5909 33.2606 73.7085 33.2606C73.826 33.1426 73.9436 33.0247 73.9436 33.0247C74.0611 32.9067 74.0611 32.7888 74.1787 32.7888C74.2962 32.6708 74.2962 32.5529 74.4138 32.5529C74.5314 32.4349 74.6489 32.1991 74.7665 32.0811C74.884 31.9632 75.0016 31.8452 75.0016 31.7273C75.1191 31.4914 75.2367 31.3734 75.2367 31.3734C75.2367 31.3734 75.1191 31.4914 75.0016 31.6093C74.884 31.7273 74.7665 31.8452 74.6489 31.9632C74.5314 32.0811 74.4138 32.1991 74.1787 32.317C74.0611 32.4349 74.0611 32.4349 73.9436 32.5529C73.826 32.6708 73.826 32.6708 73.7085 32.7888C73.5909 32.9067 73.4733 32.9067 73.4733 33.0247C73.3558 33.1426 73.2382 33.1426 73.1207 33.2606C72.8856 33.3785 72.6504 33.4965 72.4153 33.7324C72.1802 33.8503 71.9451 33.9682 71.71 34.0862C71.4749 34.2041 71.2398 34.3221 70.8871 34.3221C70.7695 34.3221 70.652 34.44 70.5344 34.44C70.4169 34.44 70.2993 34.44 70.1817 34.558C69.9466 34.558 69.7115 34.6759 69.4764 34.6759C69.2413 34.6759 69.0062 34.6759 68.771 34.6759C67.9481 34.6759 67.3604 34.558 67.3604 34.558C67.3604 34.558 67.4779 34.6759 67.713 34.6759C67.9482 34.3221 68.3008 34.44 68.6535 34.558Z" fill="#404040"/>
<path d="M8.6992 37.9785C8.46409 37.9785 8.34653 37.9785 8.11142 37.9785C7.8763 37.9785 7.75874 37.9785 7.52363 37.9785C7.28852 37.9785 7.17096 37.9785 6.93584 37.9785C6.81829 37.9785 6.58317 37.9785 6.46561 37.9785C6.34806 37.9785 6.11294 37.9785 5.99538 37.9785C5.4076 37.9785 5.05492 37.8606 5.05492 37.8606C5.05492 37.8606 5.4076 37.9785 5.99538 38.2144C6.11294 38.2144 6.2305 38.3324 6.46561 38.3324C6.58317 38.3324 6.81829 38.4503 6.93584 38.4503C7.17096 38.4503 7.28852 38.4503 7.52363 38.5683C7.75874 38.5683 7.8763 38.5683 8.11142 38.5683C8.34653 38.5683 8.46409 38.5683 8.6992 38.5683C8.93432 38.5683 9.05187 38.5683 9.28699 38.5683C9.5221 38.5683 9.63965 38.5683 9.75721 38.4503C9.87477 38.4503 10.1099 38.3324 10.2274 38.3324C10.345 38.3324 10.4626 38.2144 10.5801 38.2144C10.6977 38.2144 10.8152 38.0965 10.8152 38.0965C10.9328 37.9785 11.0503 37.9785 11.0503 37.9785C11.0503 37.9785 10.9328 37.9785 10.8152 37.9785C10.6977 37.9785 10.5801 37.9785 10.4626 37.9785C10.345 37.9785 10.2274 37.9785 10.1099 37.9785C9.99233 37.9785 9.87477 37.9785 9.63965 37.9785C9.5221 37.9785 9.28698 37.9785 9.16942 37.9785C9.05187 37.9785 8.93432 37.9785 8.6992 37.9785Z" fill="#404040"/>
<path d="M27.9786 30.0761L27.6259 30.6658C27.3908 30.6658 27.1557 30.6658 26.803 30.6658C26.3328 30.6658 25.8626 30.6658 25.3923 30.5479L25.0397 29.9581C25.6275 29.9581 26.0977 29.9581 26.6855 29.9581H27.9786V30.0761Z" fill="#404040"/>
<path d="M21.748 30.4299C21.5129 30.4299 21.2778 30.4299 21.0427 30.4299C20.69 30.4299 20.3373 30.3119 19.9847 30.3119C19.632 30.3119 19.3969 30.194 19.0442 30.194C18.4564 30.076 17.9862 30.076 17.7511 30.076C18.1038 30.076 18.4564 30.076 19.0442 30.076C19.632 30.076 20.3373 30.076 21.0427 30.194C21.1602 30.194 21.3954 30.194 21.5129 30.194L21.748 30.4299Z" fill="#404040"/>
<path d="M33.5038 30.076L33.2688 30.7839H32.2108C31.8581 30.7839 31.5055 30.7839 31.1528 30.7839L31.6229 30.076C32.2106 30.076 32.7984 30.076 33.5038 30.076Z" fill="#404040"/>
<path d="M58.661 29.0146C58.661 29.0146 58.0733 29.0146 57.1328 29.1326L57.1328 29.2505C58.0732 29.1325 58.661 29.0146 58.661 29.0146Z" fill="#404040"/>
<path d="M55.9573 29.3684C55.6046 29.3684 55.2519 29.4864 54.7817 29.4864C54.429 29.4864 53.9588 29.6043 53.4886 29.6043C53.0183 29.6043 52.5481 29.7223 52.0779 29.7223C51.8428 29.7223 51.6076 29.7223 51.3725 29.8402H44.6718V30.4299C44.3191 30.4299 43.9664 30.43 43.6138 30.5479C43.2611 30.5479 42.7909 30.5479 42.4382 30.5479L41.968 29.8402H39.9695C40.5573 29.8402 41.1451 29.8402 41.6153 29.7223C42.9084 29.7223 44.2015 29.6043 45.3771 29.6043C46.5527 29.4864 47.7283 29.4864 48.9038 29.4864C49.1389 29.4864 49.3741 29.4864 49.6092 29.4864C49.8443 29.4864 49.9618 29.4864 50.197 29.4864C50.6672 29.4864 51.0199 29.4864 51.3725 29.3684C51.6076 29.3684 51.8428 29.3684 52.0779 29.3684C52.6657 29.3684 53.2534 29.3684 53.8412 29.2505V29.3684H55.9573Z" fill="#404040"/>
<path d="M39.3818 29.9581V30.7838C38.9115 30.7838 38.4411 30.7837 37.9709 30.7837C37.5007 30.7837 37.0305 30.7837 36.5602 30.7837L36.3253 29.9581C36.9131 29.9581 37.5009 29.9581 38.0886 29.9581C38.4413 29.9581 38.9115 29.9581 39.3818 29.9581Z" fill="#404040"/>
<path d="M64.6564 36.0914C64.5389 36.5632 64.5389 36.917 64.3038 37.3888C64.0687 38.0964 63.716 38.6862 63.1282 39.2759C62.7756 39.7477 62.3053 40.1015 61.7175 40.3374C57.3679 48.3577 48.9038 53.7832 39.1465 53.7832C28.0962 53.7832 18.6916 46.8244 15.0473 37.035C14.6947 37.2708 14.4595 37.6247 14.2244 37.9785C13.9893 38.2144 13.6367 38.5683 13.4015 38.9221C17.6336 49.0654 27.6259 56.1422 39.1465 56.1422C51.4901 56.1422 62.0702 48.0039 65.7145 36.799C65.3618 36.6811 65.0091 36.4452 64.6564 36.2093C64.774 36.2093 64.6564 36.0914 64.6564 36.0914Z" fill="#120F10"/>
<path d="M13.1664 24.2968C13.1664 23.4712 13.2839 22.6456 13.6366 21.9379C13.8717 21.3482 14.2243 20.7585 14.6945 20.2867C17.9861 9.78956 27.7434 2.24103 39.264 2.24103C51.1372 2.24103 61.1296 10.3793 64.0685 21.3482C64.6563 20.9944 65.3617 20.6405 66.1846 20.5225C62.893 8.72797 52.0778 0 39.2641 0C25.2748 0 13.6366 10.3792 11.6381 23.943C12.2259 24.2968 12.8137 24.6506 13.2839 25.1224C13.1664 24.7686 13.1664 24.5327 13.1664 24.2968Z" fill="#120F10"/>
<path d="M39.264 3.06664C28.5663 3.06664 19.3968 9.9075 15.8701 19.3431C16.1052 19.2252 16.223 19.1072 16.4581 18.9893C20.1024 9.90744 28.9191 3.42043 39.2642 3.42043C50.7848 3.42043 60.4245 11.4407 63.0107 22.1738C63.1283 22.0558 63.2456 21.938 63.3632 21.82C60.6594 11.087 50.7846 3.06664 39.264 3.06664Z" fill="#120F10"/>
<path d="M39.2642 53.0755C48.3161 53.0755 56.31 48.2397 60.6596 40.9271C60.4245 40.9271 60.3069 41.0451 60.0718 41.0451C55.7222 48.0038 48.081 52.7217 39.2642 52.7217C28.684 52.7217 19.6321 45.8808 16.223 36.3272C16.1054 36.4452 15.9879 36.4452 15.8703 36.5631C19.2795 46.1167 28.4489 53.0755 39.2642 53.0755Z" fill="#120F10"/>
<path d="M19.6321 26.7738C19.1618 26.7738 18.6916 26.7738 18.3389 26.6558C18.1038 26.5379 17.8687 26.302 17.6336 26.184C17.3985 25.9481 17.2809 25.7123 17.1634 25.3584C17.0458 25.0046 17.0458 24.6507 17.0458 24.2969C17.0458 23.9431 17.0458 23.5892 17.1634 23.2354C17.2809 22.8816 17.3985 22.6457 17.6336 22.4098C17.8687 22.1739 18.1038 22.0559 18.3389 21.938C18.8092 21.7021 19.2794 21.7021 19.9847 21.8201C20.2199 21.8201 20.5725 21.938 20.9252 22.1739L21.7481 22.5277L22.6886 19.9329L21.9832 19.5791C21.513 19.3432 20.9252 19.2252 20.455 19.1073C19.9847 18.9894 19.5145 18.9893 19.1618 18.9893C18.3389 18.9893 17.6336 19.1073 16.9283 19.3432C16.2229 19.5791 15.7527 19.9329 15.1649 20.5226C14.6947 20.9944 14.342 21.5842 13.9893 22.2918C13.7542 22.8816 13.6367 23.5892 13.6367 24.4149C13.6367 25.2405 13.7542 25.9482 13.9893 26.5379C14.2244 27.1276 14.5771 27.5994 14.9298 27.9532C15.0473 28.0712 15.0473 28.1891 15.1649 28.1891C15.6351 28.6609 16.2229 29.0147 16.9283 29.2506C17.516 29.4865 18.3389 29.6045 19.0443 29.6045C19.2794 29.6045 19.6321 29.6045 19.9847 29.4865C20.3374 29.4865 20.5725 29.3686 21.0428 29.2506C21.2779 29.2506 21.3954 29.1327 21.6305 29.0147C21.7481 29.0147 21.9832 28.8968 22.1008 28.7788L22.571 28.543V23.5892H19.5145V26.7738H19.6321ZM20.455 27.4814V24.5328H21.7481V28.0712C21.7481 28.0712 21.7481 28.0712 21.6305 28.0712C21.3954 28.1891 21.0428 28.3071 20.8076 28.425C20.455 28.5429 20.2199 28.5429 19.8672 28.6609C19.5145 28.6609 19.2794 28.6609 19.0443 28.6609C18.3389 28.6609 17.7512 28.543 17.1634 28.3071C16.9283 28.1891 16.8107 28.0712 16.5756 28.0712C16.2229 27.8353 15.9878 27.7173 15.6351 27.4814C15.5176 27.2455 15.2825 27.1276 15.1649 26.8917C14.9298 26.6558 14.8122 26.302 14.6947 26.0661C14.4596 25.4764 14.342 24.8866 14.342 24.2969C14.342 23.7072 14.4596 23.1174 14.6947 22.5277C14.9298 21.938 15.2825 21.4662 15.6351 21.1124C15.9878 20.7585 16.5756 20.4047 17.0458 20.1688C17.6336 19.9329 18.2214 19.815 18.9267 19.815C19.2794 19.815 19.6321 19.815 20.1023 19.9329C20.5725 20.0509 20.9252 20.1688 21.3954 20.2868L21.0428 21.3483C20.5725 21.1124 20.2199 20.9944 19.8672 20.9944C19.5145 20.9944 19.2794 20.8765 18.9267 20.8765C18.4565 20.8765 18.1038 20.9944 17.7512 21.1124C17.3985 21.2303 17.0458 21.4662 16.8107 21.8201C16.5756 22.1739 16.3405 22.5277 16.2229 22.8816C16.1054 23.2354 15.9878 23.7072 15.9878 24.2969C15.9878 24.7687 16.1054 25.2405 16.2229 25.5943C16.3405 26.0661 16.5756 26.4199 16.8107 26.6558C16.9283 26.8917 17.1634 27.0097 17.3985 27.1276C17.516 27.2456 17.6336 27.2456 17.7512 27.3635C18.1038 27.4814 18.5741 27.5994 18.9267 27.5994C19.1618 27.5994 19.2794 27.5994 19.5145 27.5994C19.9847 27.5994 20.2199 27.4814 20.455 27.4814Z" fill="#2A2A30"/>
<path d="M31.035 27.8352L30.9174 27.5993L30.6824 26.8916L27.8609 19.1073H25.2747L22.6884 26.4199V28.6608L22.2182 28.8968C22.1006 29.0147 21.8655 29.0147 21.748 29.1326L21.6304 29.4865H24.922L25.3922 28.0711L25.6274 27.4814H27.7434L27.8609 27.9532L28.3312 29.3685H31.6228L31.035 27.8352ZM28.919 28.5429L28.6838 27.9532L28.3312 27.0096L28.0961 26.4199V26.3019L26.6854 22.0559L26.5678 21.5841L26.4503 22.0559L25.2747 25.3584L25.1571 25.5943H26.4503C26.6854 25.5943 26.8029 25.5943 27.038 25.7122C27.1556 25.8301 27.2732 25.9481 27.3907 26.066C27.5083 26.3019 27.5083 26.4199 27.6258 26.5378H24.922L24.8045 27.0096L24.4518 28.0711L24.3342 28.5429H22.9235L23.0411 28.0711L23.3938 27.1276L25.98 19.9329H27.3907L29.8594 26.8917L30.2121 27.8352L30.4472 28.5429H28.919ZM26.6855 24.6506H26.4504L26.5679 24.2968L26.6855 24.6506Z" fill="#2A2A30"/>
<path d="M39.1465 28.7788L38.9114 28.307L38.7938 28.1891C38.6763 27.9532 38.6763 27.8351 38.5588 27.5992C38.5588 27.4813 38.4412 27.3633 38.4412 27.2454C38.4412 27.0095 38.3236 26.8915 38.3236 26.7736L38.3236 26.6558L38.2061 26.184C38.0885 25.8302 37.9709 25.4763 37.8534 25.1225C37.7358 25.0045 37.7358 24.8866 37.6183 24.7687C37.8534 24.5328 37.9709 24.4148 38.0885 24.1789C38.4412 23.7071 38.5587 23.1174 38.5587 22.5277C38.5587 21.82 38.3236 21.2303 37.9709 20.6406C37.6183 20.1688 37.0305 19.697 36.4427 19.4611C35.8549 19.2252 35.1496 19.1073 34.4442 19.1073C34.0916 19.1073 33.8564 19.1073 33.6213 19.1073C33.3862 19.1073 33.0335 19.1072 32.7984 19.2252C32.4458 19.2252 32.2106 19.3431 31.7404 19.3431L31.0351 19.4611V27.7173L31.1526 27.9532L31.7404 29.4865H34.2091V25.8302H34.6793L34.7969 25.9481C34.9145 26.184 35.032 26.4199 35.1496 26.6558V26.8917C35.2671 27.1276 35.2671 27.3635 35.3847 27.5993C35.5022 27.9532 35.6198 28.425 35.8549 28.7788L36.09 29.2506H39.4992L39.1465 28.7788ZM36.5603 28.5429C36.4427 28.307 36.3251 27.9532 36.2076 27.7173V27.5993C36.09 27.3635 36.09 27.0096 35.9725 26.7737C35.9725 26.6558 35.9725 26.6558 35.9725 26.5378C35.8549 26.184 35.7374 25.8302 35.6198 25.5943C35.5022 25.3584 35.2671 25.1225 35.032 25.0045C34.7969 25.0045 34.6793 25.0045 34.4442 25.0045C34.2091 25.0045 34.0916 25.0045 33.8564 24.8866C33.8564 24.7686 33.974 24.6507 34.0916 24.4148C34.2091 24.2969 34.3267 24.1789 34.4442 24.061C34.5618 23.943 34.6793 23.943 34.9145 23.943C35.1496 23.943 35.3847 23.8251 35.6198 23.7071C35.8549 23.5892 35.9725 23.3533 36.2076 23.1174C36.3251 22.8815 36.4427 22.6456 36.4427 22.4097C36.4427 22.0559 36.3251 21.82 36.2076 21.5841C36.09 21.3482 35.8549 21.1123 35.6198 20.9944C35.3847 20.8764 35.032 20.7585 34.6793 20.7585C34.4442 20.7585 34.3267 20.7585 34.0916 20.7585C33.974 20.7585 33.7389 20.7585 33.5038 20.8764V28.5429H31.9755V20.0508C32.3282 19.9329 32.6809 19.9329 32.916 19.9329C33.1511 19.9329 33.5038 19.8149 33.7389 19.8149C33.974 19.8149 34.2091 19.8149 34.5618 19.8149C35.1496 19.8149 35.7374 19.9329 36.2076 20.1688C36.6778 20.4047 37.148 20.6405 37.3832 21.1123C37.7358 21.4662 37.8534 21.9379 37.8534 22.5277C37.8534 22.9995 37.7358 23.4712 37.5007 23.8251C37.2656 24.1789 37.0305 24.4148 36.5603 24.6507L36.2076 24.7687L36.4427 24.8866C36.6778 25.1225 36.9129 25.3584 37.0305 25.5943C37.148 25.8302 37.2656 26.184 37.3832 26.5378C37.3832 26.6558 37.5007 26.7737 37.5007 26.8917C37.5007 27.1276 37.6183 27.3635 37.7358 27.5993C37.7358 27.7173 37.8534 27.7173 37.8534 27.8352C37.9709 28.1891 38.0885 28.425 38.2061 28.7788H36.5603V28.5429ZM34.2091 23.1174V21.7021C34.4442 21.7021 34.7969 21.7021 35.032 21.82C35.1496 21.938 35.2671 21.938 35.3847 22.0559C35.3847 22.1738 35.5022 22.2918 35.5022 22.4097C35.5022 22.6456 35.5022 22.6456 35.3847 22.7636C35.2671 22.8815 35.2671 22.9995 35.1496 22.9995C35.032 23.1174 34.9145 23.1174 34.7969 23.1174C34.5618 22.9995 34.3267 23.1174 34.2091 23.1174Z" fill="#2A2A30"/>
<path d="M46.7878 28.5429H46.6703V28.4249L46.7878 28.5429Z" fill="#2A2A30"/>
<path d="M47.8458 29.0146L47.6107 28.307L47.4931 28.0711L47.258 27.3635V27.2455L46.9053 26.4199L44.3191 19.1073H41.7328L39.029 26.6558L38.6763 27.5993C38.7939 27.8352 38.7939 27.9532 38.9114 28.1891L39.029 28.307L39.2641 28.7788L39.4992 29.3685H41.2626L41.8505 27.4814L41.8504 27.3635H43.9664L44.6717 29.2506H47.9633L47.8458 29.0146ZM45.142 28.5429L44.7893 27.4814L44.4366 26.5378V26.3019L43.0259 22.0559L42.9084 21.5841L42.7908 22.0559L41.6153 25.3584L41.4977 25.5943H42.7908C43.0259 25.5943 43.1435 25.5943 43.3786 25.7122C43.4962 25.8302 43.6137 25.9481 43.7313 26.066C43.8488 26.184 43.8488 26.3019 43.9664 26.5378C43.9664 26.5378 43.9664 26.5378 43.9664 26.6558H41.2626L40.5572 28.5429H39.1465L39.4992 27.5993L39.8519 26.5378L42.203 19.8149H43.6137L45.9649 26.3019L46.3175 27.2455L46.6702 28.307L46.6703 28.4249L45.142 28.425V28.5429ZM43.0259 24.6506H42.7908L42.9083 24.2968L43.0259 24.6506Z" fill="#2A2A30"/>
<path d="M53.9587 19.1073V25.4763C54.0762 25.7122 54.0762 26.066 54.0762 26.3019V26.4199C54.0762 26.7737 54.0763 27.0096 53.9588 27.2455L53.9587 29.3685C54.1938 29.3685 54.5464 29.3685 54.7815 29.3685C55.6044 29.3685 56.3098 29.2506 56.78 29.2506C56.8976 29.2506 56.8976 29.2506 57.0151 29.2506V19.2252H53.9587V19.1073ZM56.3098 28.5429H54.8991V19.9329H56.3098V28.5429Z" fill="#2A2A30"/>
<path d="M55.9573 29.3684H57.0154L57.0151 29.2506C56.8976 29.2506 56.8976 29.2506 56.78 29.2506C56.6625 29.3685 56.3099 29.3684 55.9573 29.3684Z" fill="#2A2A30"/>
<path d="M57.1328 29.1326L57.1328 29.2505C57.0152 29.2505 57.0151 29.2505 56.8976 29.2505C56.6625 29.2505 56.3099 29.3684 55.9573 29.3684L53.9587 29.3685L53.9588 29.2505C54.1939 29.2505 54.5465 29.2505 54.7817 29.2505C55.6046 29.2505 56.3098 29.1326 56.78 29.1326C57.0151 29.1326 57.0152 29.1326 57.1328 29.1326Z" fill="#2A2A30"/>
<path d="M54.0764 26.1839C54.0764 25.948 54.0764 25.5942 53.9588 25.3583C53.8412 25.1224 53.7237 24.8865 53.6061 24.6506C53.371 24.2967 53.0183 23.825 52.6657 23.5891C52.313 23.3532 51.9603 23.1173 51.6077 22.8814L51.4901 22.7634C51.255 22.6455 50.9023 22.4096 50.6672 22.2917C50.4321 22.1737 50.197 22.0558 50.0794 21.8199V21.584C50.0794 21.584 50.197 21.466 50.4321 21.466C50.5496 21.466 50.7848 21.466 51.0199 21.466C51.255 21.466 51.6077 21.584 51.8428 21.7019L52.5481 21.9378L53.6061 19.461L52.7832 19.2251C52.313 18.9892 51.8428 18.9892 51.4901 18.8712C50.4321 18.7533 49.3741 18.7533 48.6687 19.1071C48.0809 19.343 47.7283 19.6969 47.3756 20.1686C47.0229 20.6404 46.9054 21.2302 46.9054 21.8199C46.9054 22.4096 47.0229 22.9993 47.3756 23.3532C47.6107 23.707 47.9634 24.0608 48.3161 24.2967C48.6687 24.5326 49.0214 24.7685 49.3741 25.0044C49.7267 25.1224 49.9619 25.3582 50.3145 25.4762C50.5496 25.5941 50.6672 25.7121 50.7848 25.948L50.9023 26.0659C50.9023 26.0659 50.9023 26.1839 50.7848 26.3018C50.5496 26.5377 50.0794 26.5377 49.3741 26.4198C49.0214 26.4198 48.7863 26.3018 48.4336 26.0659C48.4336 26.0659 48.4336 26.0659 48.3161 26.0659L47.4932 25.7121L47.3756 26.0659L47.0229 26.8915V27.0095L47.258 27.7172L47.3756 27.9531L47.6107 28.6607C47.9634 28.7787 48.4336 29.0146 48.7863 29.0146C49.0214 29.0146 49.2565 29.1325 49.4916 29.1325C50.0794 29.1325 50.6672 29.1325 51.255 29.0146C51.4901 29.0146 51.8428 28.8966 52.0779 28.7787C52.6657 28.5428 53.1359 28.1889 53.4886 27.5992C53.6061 27.3633 53.8412 27.0095 53.8412 26.7736C54.0764 26.8915 54.0764 26.6557 54.0764 26.1839C54.0764 26.3018 54.0764 26.3018 54.0764 26.1839ZM53.0183 27.2454C53.0183 27.3633 52.9008 27.4813 52.9008 27.5992C52.6657 27.9531 52.313 28.1889 51.8428 28.4248C51.3725 28.6607 50.9023 28.7787 50.3145 28.7787C49.9619 28.7787 49.6092 28.7787 49.139 28.6607C48.6687 28.5428 48.1985 28.4248 47.7283 28.1889L48.1985 27.2454C48.4336 27.3633 48.6687 27.4813 48.7863 27.4813C49.0214 27.4813 49.139 27.5992 49.3741 27.5992C49.7267 27.7172 50.0794 27.7172 50.3145 27.7172C50.7848 27.7172 51.1374 27.5992 51.3725 27.3633C51.3725 27.3633 51.3725 27.3633 51.4901 27.3633C51.8428 27.1274 51.9603 26.7736 51.9603 26.4198C51.9603 26.4198 51.9603 26.4198 51.9603 26.3018C51.9603 26.0659 51.8428 25.83 51.7252 25.5941C51.4901 25.3583 51.255 25.2403 51.0199 25.0044C50.6672 24.8865 50.4321 24.6506 50.0794 24.5326C49.7267 24.4147 49.3741 24.1788 49.139 23.9429C48.7863 23.707 48.5512 23.4711 48.4336 23.1173C48.1985 22.7634 48.1985 22.4096 48.1985 22.0558C48.1985 21.584 48.3161 21.2302 48.5512 20.8763C48.7863 20.5225 49.0214 20.2866 49.4916 20.1686C49.8443 20.0507 50.3145 19.9328 50.7848 19.9328C51.1374 19.9328 51.4901 19.9328 51.8428 20.0507C52.1954 20.0507 52.5481 20.1686 53.0183 20.4045L52.6657 21.3481C52.313 21.2301 51.9603 21.1122 51.7252 21.1122C51.3725 21.1122 51.1374 21.1122 50.9023 21.1122C50.5496 21.1122 50.197 21.2302 49.9619 21.466C49.7267 21.7019 49.6092 21.9378 49.6092 22.1737C49.6092 22.4096 49.7267 22.7634 49.8443 22.8814C50.0794 23.1173 50.3145 23.2352 50.5496 23.4711C50.9023 23.5891 51.1374 23.825 51.4901 24.0608C51.8428 24.2967 52.1954 24.4147 52.4306 24.6506C52.7832 24.8865 53.0183 25.1224 53.1359 25.4762C53.371 25.83 53.371 26.1839 53.371 26.5377C53.371 26.5377 53.371 26.5377 53.371 26.6557C53.2535 26.6557 53.2535 27.0095 53.0183 27.2454Z" fill="#2A2A30"/>
<path d="M51.4901 29.3685C51.1374 29.4864 50.7847 29.4864 50.3144 29.4864C50.0793 29.4864 49.9618 29.4864 49.7267 29.4864C50.3144 29.4864 50.9023 29.4864 51.4901 29.3685Z" fill="#2A2A30"/>
<path d="M28.0962 29.9581L27.9787 30.194L27.6259 30.7838L27.0382 31.9633L26.6855 32.6709L26.2153 31.9633L25.5099 30.7838L25.1573 30.194L25.0397 29.9581H21.3955L21.513 30.0761L21.748 30.4299L22.571 31.7273L23.7466 33.7324L23.9817 34.0862L25.0397 35.8554V40.2194H28.2138V35.7375L29.2718 33.9683L29.6245 33.4965L30.5649 31.9632L31.7405 30.194L31.8581 29.9581H28.0962ZM27.2733 39.2758H25.8626V35.5016L25.2749 34.558L24.9222 33.9683L24.6871 33.6145L23.5115 31.7273L22.9237 30.6658H24.5695L26.3329 33.6145L26.568 34.0862L26.9207 34.558V34.676L27.2733 35.3836V39.2758ZM30.0947 30.7838L29.3894 31.8453L28.4489 33.4965L28.0962 33.9683L27.7436 34.558L27.5084 34.7939C27.5084 34.676 27.3909 34.558 27.3909 34.558C27.3909 34.4401 27.2733 34.4401 27.2733 34.3221C27.2733 34.2042 27.1558 34.0862 27.1558 33.9683C27.1558 33.8503 27.0382 33.7324 27.0382 33.6145V33.4965C27.0382 33.2606 27.0382 33.1427 27.1558 32.9068L27.7436 31.8453L28.3313 30.6658V30.5479H29.8596L30.0947 30.7838Z" fill="#1A1B23"/>
<path d="M39.3816 38.8041L37.7358 34.3222L37.6183 33.8504L37.3832 33.2607L36.7954 31.7273L36.4427 30.7838L36.2075 29.9582V29.8402H33.6213V29.9582L33.0335 31.7274L32.4457 33.2607L32.2106 33.8504L31.9755 34.3222L29.8595 40.1015H33.1511L33.8564 38.0964H35.9724L36.6778 40.1015H39.9694L39.3816 38.8041ZM37.148 39.2759L36.4427 37.1529V37.0349L35.5022 34.4401L35.3847 33.9683L34.9144 32.7889L34.7969 32.3171L34.6793 32.7889L34.2091 33.9683L34.0915 34.4401L33.5037 36.0914L33.3862 36.3272H34.6793C34.9144 36.3272 35.032 36.4452 35.2671 36.5631C35.3847 36.6811 35.5022 36.799 35.6198 36.917C35.7373 37.0349 35.7373 37.2708 35.8549 37.3887H33.1511L32.4457 39.3938H31.035L32.7984 34.5581L33.0335 34.0863L33.2686 33.4966L33.8564 31.9633L34.2091 30.9017L34.3266 30.7838H35.7373V30.9017L36.5602 33.3786L36.7953 33.9683L36.9129 34.4401L38.6763 39.3938H37.148V39.2759ZM34.9144 35.5016H34.6793L34.7968 35.1478L34.9144 35.5016Z" fill="#1A1B23"/>
<path d="M40.2046 29.9581C39.9695 29.9581 39.7344 29.9581 39.3818 29.9581H40.2046Z" fill="#1E1F28"/>
<path d="M44.7891 29.9582L44.7893 34.2041L44.4366 33.7326L44.0839 33.1428L43.0258 31.4915L42.4382 30.5479L41.968 29.8402H39.9695C39.7344 29.8402 39.4991 29.8402 39.1464 29.8402V38.6862L39.6166 40.1015H42.0853V35.5016L44.9067 40.1015H47.493V29.9582H44.7891ZM46.9052 39.2759H45.612L42.438 34.2042L42.0853 33.7325L41.7327 33.1427L41.6151 32.9068L41.38 32.553V39.2759H40.0868V30.6659L41.4977 30.6658L41.9678 31.4915L43.0258 33.1427L43.3785 33.7325L43.7311 34.2042L45.3769 36.799L45.4945 37.2708V36.799V30.6659H46.7876V39.2759H46.9052Z" fill="#1A1B23"/>
<path d="M47.7283 29.9581V32.6709L49.7266 32.6709L49.7268 40.2194H52.9008L52.9006 32.6709L55.252 32.6709V29.9581H47.7283ZM54.4291 31.7273H52.0779V39.2758H50.6672V31.7273H48.3161V30.6658H54.5466V31.7273H54.4291Z" fill="#1A1B23"/>
<path d="M63.9511 33.1428C63.716 32.5531 63.4809 31.9633 63.0106 31.3736C62.5404 30.7839 62.0702 30.4301 61.4824 30.0762C61.1297 29.9583 60.7771 29.8403 60.3068 29.7224C59.9542 29.6044 59.6016 29.6043 59.2489 29.6043C58.5436 29.6043 57.8382 29.7223 57.2504 29.9582C57.2504 29.9582 57.1329 29.9582 57.0153 30.0761C56.5451 30.312 55.9573 30.6658 55.6046 31.1376C55.4871 31.2556 55.3695 31.3735 55.252 31.6094V32.6709L54.664 32.6709C54.664 32.7888 54.5464 32.7888 54.5464 32.9068C54.5464 32.9068 54.5464 32.9068 54.5464 33.0248C54.5464 33.1427 54.4288 33.2606 54.4288 33.3786C54.4288 33.6145 54.3113 33.7324 54.3113 33.9683C54.3113 34.3221 54.1939 34.676 54.1939 35.0298C54.1939 36.0913 54.4291 36.917 54.7817 37.7426C55.1344 38.5682 55.8397 39.1579 56.5451 39.6297C57.368 40.1015 58.1909 40.3374 59.2489 40.3374C59.9543 40.3374 60.6596 40.2194 61.3649 39.8656C61.9527 39.6297 62.5405 39.1579 62.8932 38.6861C63.3634 38.2143 63.7161 37.6246 63.9512 37.0349C64.1863 36.4452 64.3038 35.7376 64.3038 35.0299C64.1862 34.4402 64.0687 33.7325 63.9511 33.1428ZM63.0107 36.6811C62.7756 37.2708 62.5405 37.7426 62.1878 38.0964C61.8352 38.4502 61.3649 38.8041 60.8947 39.04C60.4245 39.2759 59.8367 39.3938 59.1313 39.3938C58.3084 39.3938 57.6031 39.1579 56.8978 38.8041C56.31 38.4502 55.8398 37.8605 55.4871 37.2708C55.1344 36.5631 55.0168 35.8555 55.0168 34.9119C55.0168 34.5581 55.0168 34.2042 55.1344 33.8503C55.1344 33.6145 55.252 33.4965 55.252 33.2606C55.252 33.1427 55.252 33.1427 55.252 33.0247L55.3695 32.9068C55.6046 32.435 55.8397 31.9632 56.1924 31.6094C56.5451 31.2556 57.0153 30.9017 57.4855 30.6658C57.9558 30.4299 58.5436 30.312 59.1313 30.312C59.8367 30.312 60.4245 30.4299 61.0123 30.6658C61.6001 30.9017 61.9527 31.2556 62.3054 31.7273C62.6581 32.1991 62.8932 32.6709 63.0107 33.1427C63.0107 33.2606 63.0107 33.3786 63.1283 33.4965C63.2459 33.8504 63.2458 34.0862 63.2458 34.4401C63.2458 34.558 63.2458 34.676 63.2458 34.7939C63.3634 35.6196 63.2458 36.2093 63.0107 36.6811Z" fill="#1A1B23"/>
<path d="M27.1557 43.2861C27.0382 43.2861 26.9206 43.2861 26.8031 43.1682C26.6855 43.0502 26.6855 43.0502 26.6855 42.9323H26.4504C26.4504 43.0502 26.4504 43.1682 26.5679 43.1682C26.5679 43.2861 26.6855 43.2861 26.8031 43.404C26.9206 43.522 27.0382 43.522 27.1557 43.522H27.2733C27.5084 43.522 27.626 43.404 27.7435 43.404C27.8611 43.404 27.9786 43.1682 27.9786 43.0502C27.9786 42.8143 27.8611 42.6964 27.626 42.5784H27.5084L27.2733 42.4605C27.0382 42.4605 27.0382 42.3425 27.0382 42.1066C27.0382 41.9887 27.1557 41.9887 27.1557 41.8707C27.2733 41.7528 27.3909 41.7528 27.5084 41.7528C27.626 41.7528 27.7435 41.7528 27.7435 41.8707C27.8611 41.9887 27.8611 41.9887 27.8611 42.1066H28.0962C28.0962 41.9887 28.0962 41.8707 27.9786 41.7528C27.8611 41.6349 27.7435 41.6348 27.5084 41.6348C27.2733 41.6348 27.1557 41.6349 27.0382 41.7528C26.9206 41.8707 26.8031 41.9887 26.8031 42.1066C26.8031 42.3425 26.9206 42.4605 27.1557 42.5784L27.3908 42.6963C27.626 42.8143 27.7435 42.9323 27.626 43.0502C27.626 43.1682 27.5084 43.2861 27.5084 43.2861C27.3909 43.1681 27.2733 43.2861 27.1557 43.2861Z" fill="black"/>
<path d="M29.6243 42.3424C29.6243 42.2244 29.6243 42.1065 29.6243 41.8706C29.6243 41.7527 29.5068 41.6347 29.3892 41.6347C29.2716 41.5168 29.1541 41.5168 29.0365 41.5168C28.919 41.5168 28.8014 41.5168 28.6839 41.6347C28.5663 41.7527 28.4487 41.8706 28.3312 41.9886C28.2136 42.1065 28.2136 42.3424 28.2136 42.4603C28.2136 42.5783 28.2136 42.8142 28.2136 42.9321C28.2136 43.0501 28.3312 43.168 28.4487 43.2859C28.5663 43.4039 28.6839 43.4039 28.8014 43.4039C28.919 43.4039 29.0365 43.4039 29.1541 43.2859C29.2716 43.2859 29.3892 43.168 29.3892 43.0501L29.2716 42.9321C29.1541 43.0501 29.1541 43.0501 29.0365 43.168C28.919 43.168 28.8014 43.2859 28.8014 43.2859C28.6839 43.2859 28.5663 43.286 28.5663 43.168C28.5663 43.0501 28.4487 43.0501 28.4487 42.9321C28.4487 42.8142 28.4487 42.6962 28.4487 42.5783H29.6243V42.3424ZM28.6839 41.8706C28.8014 41.7527 28.919 41.7527 29.0365 41.7527C29.1541 41.7527 29.2716 41.8706 29.3892 41.8706C29.5068 41.9886 29.5068 42.1065 29.5068 42.2244H28.4487C28.4487 42.1065 28.5663 41.9886 28.6839 41.8706Z" fill="black"/>
<path d="M30.2121 41.6348L29.8595 43.404H30.0946L30.3297 42.2246C30.3297 42.1066 30.4473 41.9887 30.5648 41.9887C30.6824 41.8708 30.7999 41.8707 30.9175 41.8707H31.035V41.6348H30.9175C30.7999 41.6348 30.6824 41.6349 30.5648 41.7528C30.4473 41.7528 30.4472 41.8708 30.3297 41.9887L30.4473 41.7528H30.2121V41.6348Z" fill="black"/>
<path d="M32.5633 41.6348H32.3282L31.6229 43.0502L31.2702 41.6348H31.1526L31.5053 43.404H31.6229L32.5633 41.6348Z" fill="black"/>
<path d="M32.6809 43.404H32.7985L33.1511 41.6348H32.916L32.6809 43.404Z" fill="black"/>
<path d="M33.151 41.1631C33.2685 41.1631 33.2685 41.1631 33.151 41.1631C33.151 41.0452 33.151 41.0451 33.151 40.9272C33.151 40.9272 33.151 40.9272 33.0334 40.9272C32.9159 40.9272 32.9159 41.0451 32.9159 41.0451C33.0334 41.1631 33.0334 41.1631 33.151 41.1631Z" fill="black"/>
<path d="M33.8565 41.8706C33.9741 41.7527 34.0916 41.7527 34.2092 41.7527C34.3267 41.7527 34.4443 41.7527 34.5619 41.8706C34.6794 41.9886 34.6794 42.1065 34.6794 42.2244H34.9145C34.9145 41.9885 34.9145 41.8706 34.797 41.7527C34.6794 41.6347 34.5619 41.5168 34.3267 41.5168C34.2092 41.5168 34.0916 41.5168 33.9741 41.6347C33.8565 41.6347 33.739 41.7527 33.739 41.8706C33.6214 41.9886 33.6214 42.1065 33.6214 42.1065C33.6214 42.2244 33.5038 42.3424 33.5038 42.4603V42.5783C33.5038 42.6962 33.5038 42.9321 33.5038 43.0501C33.5038 43.168 33.6214 43.2859 33.739 43.4039C33.8565 43.5218 33.9741 43.5218 34.0916 43.5218C34.3267 43.5218 34.4443 43.5218 34.5619 43.4039C34.6794 43.2859 34.797 43.168 34.797 42.9321H34.5619C34.5619 43.0501 34.4443 43.168 34.3267 43.2859C34.2092 43.4039 34.0916 43.4039 33.9741 43.4039C33.8565 43.4039 33.739 43.4039 33.6214 43.2859C33.5038 43.168 33.5038 43.0501 33.5038 42.9321C33.5038 42.8142 33.5038 42.5783 33.6214 42.4603C33.739 42.1065 33.8565 41.9886 33.8565 41.8706Z" fill="black"/>
<path d="M36.5602 42.3424C36.5602 42.2244 36.5602 42.1065 36.5602 41.8706C36.5602 41.6347 36.4426 41.6347 36.3251 41.6347C36.2075 41.5168 36.09 41.5168 35.9724 41.5168C35.8549 41.5168 35.7373 41.5168 35.6197 41.6347C35.5022 41.7527 35.3846 41.8706 35.2671 41.9886C35.1495 42.1065 35.1495 42.3424 35.1495 42.4603C35.1495 42.5783 35.1495 42.8142 35.1495 42.9321C35.1495 43.0501 35.2671 43.168 35.3846 43.2859C35.5022 43.4039 35.6197 43.4039 35.7373 43.4039C35.8549 43.4039 35.9724 43.4039 36.09 43.2859C36.2075 43.2859 36.3251 43.168 36.3251 43.0501L36.2075 42.9321C36.09 43.0501 36.09 43.0501 35.9724 43.168C35.8549 43.168 35.7373 43.2859 35.7373 43.2859C35.6197 43.2859 35.5022 43.286 35.5022 43.168C35.3846 43.0501 35.3846 43.0501 35.3846 42.9321C35.3846 42.8142 35.3846 42.6962 35.3846 42.5783H36.5602V42.3424ZM35.6197 41.8706C35.7373 41.7527 35.8549 41.7527 35.9724 41.7527C36.09 41.7527 36.2075 41.8706 36.3251 41.8706C36.4426 41.9886 36.4426 42.1065 36.4426 42.2244H35.3846C35.3846 42.1065 35.5022 41.9886 35.6197 41.8706Z" fill="black"/>
<path d="M37.0305 43.4039C37.0305 43.286 37.0305 43.286 37.0305 43.4039C37.0305 43.286 37.0305 43.286 37.0305 43.168C37.0305 43.168 37.0305 43.168 36.9129 43.168H36.7954V43.4039C36.7954 43.4039 36.9129 43.4039 37.0305 43.4039Z" fill="black"/>
<path d="M39.029 43.2861C38.9114 43.2861 38.7939 43.2861 38.6763 43.1682C38.5588 43.0502 38.5588 43.0502 38.5588 42.9323H38.3236C38.3236 43.0502 38.3236 43.1682 38.4412 43.1682C38.4412 43.2861 38.5588 43.2861 38.6763 43.404C38.7939 43.522 38.9114 43.522 39.029 43.522H39.1465C39.3817 43.522 39.4992 43.404 39.6168 43.404C39.7343 43.2861 39.8519 43.1682 39.8519 43.0502C39.8519 42.8143 39.7343 42.6964 39.4992 42.5784H39.3817L39.1465 42.4605C38.9114 42.4605 38.9114 42.3425 38.9114 42.1066C38.9114 41.9887 39.029 41.9887 39.029 41.8707C39.1465 41.7528 39.2641 41.7528 39.3817 41.7528C39.4992 41.7528 39.6168 41.7528 39.6168 41.8707C39.7343 41.9887 39.7343 41.9887 39.7343 42.1066H39.9694C39.9694 41.9887 39.9694 41.8707 39.8519 41.7528C39.7343 41.6349 39.6168 41.6348 39.3817 41.6348C39.1465 41.6348 39.029 41.6349 38.9114 41.7528C38.7939 41.8707 38.6763 41.9887 38.6763 42.1066C38.6763 42.3425 38.7939 42.4605 39.029 42.5784L39.2641 42.6963C39.4992 42.8143 39.6168 42.9323 39.4992 43.0502C39.4992 43.1682 39.3817 43.2861 39.3817 43.2861C39.2641 43.1681 39.1465 43.2861 39.029 43.2861Z" fill="black"/>
<path d="M40.322 41.6348L39.8518 44.1117H40.0869L40.2044 43.1682C40.2044 43.2861 40.322 43.2861 40.4395 43.404C40.5571 43.404 40.6746 43.522 40.6746 43.522C40.7922 43.522 40.9098 43.522 41.0273 43.404C41.1449 43.2861 41.2624 43.2861 41.2624 43.0502C41.38 42.9323 41.38 42.6964 41.38 42.5784C41.38 42.4605 41.38 42.4605 41.38 42.3425C41.38 42.1066 41.38 41.9887 41.2624 41.8707C41.1449 41.7528 41.0273 41.6348 40.9098 41.6348C40.6746 41.6348 40.4395 41.7528 40.322 41.8707V41.6348ZM40.6746 41.8707C40.7922 41.7528 40.9098 41.7528 41.0273 41.7528C41.1449 41.7528 41.2624 41.7528 41.38 41.8707C41.4975 41.9887 41.4975 42.1066 41.4975 42.3425V42.5784C41.4975 42.8143 41.38 42.9323 41.2624 43.0502C41.1449 43.1682 41.0273 43.2861 40.9098 43.2861C40.7922 43.2861 40.6746 43.2861 40.6746 43.1682C40.5571 43.1682 40.5571 43.0502 40.5571 42.9323L40.6746 42.1066C40.5571 41.9887 40.6746 41.8707 40.6746 41.8707Z" fill="black"/>
<path d="M42.7909 42.3424C42.6734 42.3424 42.4382 42.3424 42.3207 42.4603C42.2031 42.4603 42.0856 42.5783 41.968 42.6962C41.8505 42.8142 41.8505 42.9321 41.8505 43.0501C41.8505 43.168 41.8505 43.2859 41.968 43.4039C42.0856 43.5218 42.2031 43.5218 42.3207 43.5218C42.4382 43.5218 42.5558 43.5218 42.6734 43.4039C42.7909 43.4039 42.9085 43.286 42.9085 43.168V43.4039H43.1436C43.1436 43.4039 43.1436 43.286 43.1436 43.168V43.0501L43.2611 42.1065C43.2611 41.9885 43.2611 41.7527 43.1436 41.6347C43.026 41.5168 42.9085 41.5168 42.6734 41.5168C42.4382 41.5168 42.3207 41.5168 42.2031 41.6347C42.0856 41.7527 41.968 41.8706 41.968 41.9886H42.2031C42.2031 41.8706 42.3207 41.7527 42.4382 41.7527C42.5558 41.6347 42.6734 41.6347 42.7909 41.6347C42.9085 41.6347 43.026 41.6347 43.026 41.7527C43.026 41.8706 43.1436 41.8706 43.1436 41.9886V42.2244L42.7909 42.3424ZM43.0259 42.9323C42.9083 43.0502 42.9083 43.1682 42.7907 43.1682C42.6732 43.2861 42.5556 43.2861 42.4381 43.2861C42.3205 43.2861 42.203 43.2861 42.203 43.1682C42.0854 43.0502 42.0854 43.0502 42.0854 42.9323C42.0854 42.8143 42.203 42.6964 42.3205 42.5785C42.4381 42.4605 42.5558 42.4603 42.7909 42.4603H43.1436L43.0259 42.9323Z" fill="black"/>
<path d="M43.9664 41.6348L43.6137 43.404H43.8488L44.0839 42.2246C44.0839 42.1066 44.2015 41.9887 44.319 41.9887C44.4366 41.8708 44.5541 41.8707 44.6717 41.8707H44.7893V41.6348H44.6717C44.5541 41.6348 44.4366 41.6349 44.319 41.7528C44.2015 41.7528 44.2015 41.8708 44.0839 41.9887L44.2015 41.7528H43.9664V41.6348Z" fill="black"/>
<path d="M46.2 42.3424C46.2 42.2244 46.2 42.1065 46.2 41.8706C46.2 41.7527 46.0824 41.6347 45.9649 41.6347C45.8473 41.5168 45.7297 41.5168 45.6122 41.5168C45.4946 41.5168 45.3771 41.5168 45.2595 41.6347C45.142 41.7527 45.0244 41.8706 44.9068 41.9886C44.7893 42.1065 44.7893 42.3424 44.7893 42.4603C44.7893 42.5783 44.7893 42.8142 44.7893 42.9321C44.7893 43.0501 44.9068 43.168 45.0244 43.2859C45.142 43.4039 45.2595 43.4039 45.3771 43.4039C45.4946 43.4039 45.6122 43.4039 45.7298 43.2859C45.8473 43.2859 45.9649 43.168 45.9649 43.0501L45.8473 42.9321C45.7298 43.0501 45.7297 43.0501 45.6122 43.168C45.4946 43.168 45.3771 43.2859 45.3771 43.2859C45.2595 43.2859 45.142 43.286 45.142 43.168C45.0244 43.0501 45.0244 43.0501 45.0244 42.9321C45.0244 42.8142 45.0244 42.6962 45.0244 42.5783H46.2V42.3424ZM45.2595 41.8706C45.3771 41.7527 45.4946 41.7527 45.6122 41.7527C45.7297 41.7527 45.8473 41.8706 45.9649 41.8706C46.0824 41.9886 46.0824 42.1065 46.0824 42.2244H45.0244C45.0244 42.1065 45.142 41.9886 45.2595 41.8706Z" fill="black"/>
<path d="M46.7878 41.6348L46.3176 44.1117H46.5527L46.6702 43.1682C46.6702 43.2861 46.7878 43.2861 46.9054 43.404C47.0229 43.404 47.1405 43.522 47.1405 43.522C47.258 43.522 47.3756 43.522 47.4931 43.404C47.6107 43.2861 47.7283 43.2861 47.7283 43.0502C47.7283 42.8143 47.8458 42.6964 47.8458 42.5784C47.8458 42.4605 47.8458 42.4605 47.8458 42.3425C47.8458 42.1066 47.8458 41.9887 47.7283 41.8707C47.6107 41.7528 47.4931 41.6348 47.3756 41.6348C47.1405 41.6348 46.9054 41.7528 46.7878 41.8707L46.7878 41.6348ZM47.1405 41.8707C47.258 41.7528 47.3756 41.7528 47.4931 41.7528C47.6107 41.7528 47.7283 41.7528 47.8458 41.8707C47.9634 41.9887 47.9634 42.1066 47.9634 42.3425V42.5784C47.9634 42.8143 47.8458 42.9323 47.7283 43.0502C47.6107 43.1682 47.4931 43.2861 47.3756 43.2861C47.258 43.2861 47.1405 43.2861 47.1405 43.1682C47.0229 43.1682 47.0229 43.0502 47.0229 42.9323L47.1405 42.1066C46.9054 41.9887 47.0229 41.8707 47.1405 41.8707Z" fill="black"/>
<path d="M49.1388 42.3424C49.0213 42.3424 48.7862 42.3424 48.6686 42.4603C48.551 42.4603 48.4335 42.5783 48.3159 42.6962C48.1984 42.8142 48.1984 42.9321 48.1984 43.0501C48.1984 43.168 48.1984 43.2859 48.3159 43.4039C48.4335 43.5218 48.551 43.5218 48.6686 43.5218C48.7862 43.5218 48.9037 43.5218 49.0213 43.4039C49.1388 43.4039 49.2564 43.286 49.2564 43.168V43.4039H49.4915C49.4915 43.4039 49.4915 43.286 49.4915 43.168V43.0501L49.6091 42.1065C49.6091 41.9885 49.6091 41.7527 49.4915 41.6347C49.3739 41.5168 49.2564 41.5168 49.0213 41.5168C48.7861 41.5168 48.6686 41.5168 48.551 41.6347C48.4335 41.7527 48.3159 41.8706 48.3159 41.9886H48.551C48.551 41.8706 48.6686 41.7527 48.7862 41.7527C48.9037 41.6347 49.0213 41.6347 49.1388 41.6347C49.2564 41.6347 49.3739 41.6347 49.3739 41.7527C49.3739 41.8706 49.4915 41.8706 49.4915 41.9886V42.2244L49.1388 42.3424ZM49.4915 42.9321C49.3739 43.0501 49.3739 43.168 49.2564 43.168C49.1388 43.286 49.0213 43.2859 48.9037 43.2859C48.7862 43.2859 48.6686 43.286 48.6686 43.168C48.551 43.0501 48.551 43.0501 48.551 42.9321C48.551 42.8142 48.6686 42.6962 48.7862 42.5783C48.9037 42.4603 49.0213 42.4603 49.2564 42.4603H49.6091L49.4915 42.9321Z" fill="black"/>
<path d="M50.3144 41.6348L49.9618 43.404H50.1969L50.432 42.2246C50.432 42.1066 50.5496 41.9887 50.6671 41.9887C50.7847 41.8708 50.9022 41.8707 51.0198 41.8707H51.1373V41.6348H51.0198C50.9022 41.6348 50.7847 41.6349 50.6671 41.7528C50.5496 41.7528 50.5496 41.8708 50.432 41.9887L50.5496 41.7528H50.3144V41.6348Z" fill="black"/>
<path d="M51.7252 41.1631L51.6076 41.6349H51.2549V41.7528H51.6076L51.3725 42.9323C51.3725 43.0502 51.3725 43.1682 51.3725 43.2861C51.3725 43.4041 51.4901 43.4041 51.6076 43.4041C51.7252 43.4041 51.7252 43.4041 51.8427 43.4041V43.2861C51.7252 43.2861 51.7252 43.2861 51.7252 43.2861C51.6076 43.2861 51.6076 43.1682 51.6076 43.0502V42.9323L51.8427 41.7528H52.1954V41.6349H51.8427L51.9603 41.1631H51.7252Z" fill="black"/>
<path d="M61.7175 34.0863C61.5999 33.7325 61.5999 33.4966 61.4824 33.2607V33.1427C61.2473 32.6709 61.0121 32.3171 60.6595 32.0812C60.3068 31.8453 59.8366 31.6094 59.2488 31.6094C58.661 31.6094 58.3083 31.7274 57.8381 32.0812C57.4854 32.3171 57.2503 32.671 57.0152 33.0248C57.0152 33.1427 56.8977 33.1427 56.8977 33.2607C56.7801 33.4966 56.7801 33.6145 56.7801 33.8504C56.6625 34.2042 56.6625 34.5581 56.6625 34.9119C56.6625 35.3837 56.7801 35.8555 56.8977 36.2093C57.0152 36.5631 57.2503 37.035 57.3679 37.2708C57.603 37.6247 57.8381 37.8605 58.1908 37.9785C58.5434 38.2144 58.8961 38.2144 59.2488 38.2144C59.719 38.2144 60.1892 38.0965 60.5419 37.7426C60.8946 37.5067 61.2473 37.0349 61.4824 36.5632C61.7175 36.0914 61.835 35.5017 61.835 34.794C61.835 34.676 61.7175 34.4401 61.7175 34.0863ZM60.6595 36.4453C60.542 36.7991 60.3068 37.153 59.9542 37.2709C59.719 37.5068 59.4839 37.5068 59.1313 37.5068C58.8961 37.5068 58.661 37.5068 58.4259 37.3888C58.1908 37.2709 58.0733 37.1529 57.8381 36.9171C57.7206 36.6812 57.4855 36.4453 57.4855 36.0915C57.3679 35.7376 57.3679 35.3838 57.3679 35.0299C57.3679 34.5581 57.4855 34.2043 57.4855 33.8505C57.4855 33.7325 57.4854 33.7325 57.603 33.6145C57.7205 33.4966 57.7206 33.3786 57.8381 33.2607C57.9557 33.1427 57.9557 33.0248 58.0733 33.0248C58.1908 32.9068 58.1908 32.9068 58.3084 32.7889C58.5435 32.553 58.7786 32.553 59.1313 32.553C59.4839 32.553 59.7191 32.6709 59.9542 32.7889C60.0717 32.7889 60.0717 32.9068 60.1893 33.0248C60.1893 33.1427 60.3068 33.1427 60.3068 33.2607C60.4244 33.3786 60.5419 33.4966 60.5419 33.7325C60.5419 33.8504 60.6595 33.9684 60.6595 34.0863C60.777 34.4401 60.777 34.794 60.777 35.1478C60.8946 35.6196 60.8946 36.0914 60.6595 36.4453Z" fill="#1A1B23"/>
</svg>
